<svg width="15" height="15" viewBox="0 0 15 15" fill="none" xmlns="http://www.w3.org/2000/svg">
<path d="M7.88372 14.9997C5.77203 14.9997 3.79066 14.1812 2.30453 12.6952C0.818407 11.2091 1.84635e-07 9.22759 1.84635e-07 7.11587C-0.000315054 5.65912 0.403044 4.23077 1.16531 2.98936C1.92757 1.74796 3.01892 0.742058 4.31822 0.0833103C4.45189 0.0151683 4.60268 -0.0120916 4.75175 0.00493321C4.90082 0.0219581 5.04157 0.0825135 5.15644 0.17904C5.2713 0.275567 5.3552 0.403789 5.39764 0.547701C5.44008 0.691612 5.4392 0.844836 5.39509 0.988248C5.02433 2.18581 4.98789 3.46193 5.28971 4.6787C5.59153 5.89547 6.22014 7.00663 7.10759 7.89209C7.74446 8.5337 8.50227 9.0426 9.33714 9.38935C10.172 9.7361 11.0674 9.91381 11.9714 9.91219C12.663 9.91271 13.3507 9.80898 14.0113 9.6045C14.1547 9.56037 14.308 9.55946 14.4519 9.6019C14.5958 9.64433 14.7241 9.72823 14.8206 9.8431C14.9171 9.95798 14.9777 10.0988 14.9947 10.2478C15.0117 10.3969 14.9845 10.5477 14.9163 10.6814C14.2575 11.9807 13.2516 13.0721 12.0102 13.8343C10.7688 14.5966 9.34048 15 7.88372 14.9997ZM4.29094 1.24284C3.2834 1.85587 2.45111 2.71854 1.87459 3.7474C1.29807 4.77626 0.996828 5.9365 1 7.11587C1 10.9116 4.088 13.9997 7.88372 13.9997C9.0631 14.0029 10.2233 13.7016 11.2522 13.1251C12.2811 12.5486 13.1438 11.7163 13.7568 10.7087C13.1713 10.8442 12.5724 10.9125 11.9715 10.9123C10.9361 10.9143 9.91058 10.7108 8.95434 10.3138C7.9981 9.91678 7.1301 9.33403 6.40059 8.59928C5.45289 7.65337 4.76187 6.48157 4.39275 5.19446C4.02363 3.90736 3.98859 2.54743 4.29094 1.24303V1.24284Z" fill="white"/>
</svg>
