<svg width="10" height="6" viewBox="0 0 10 6" fill="none" xmlns="http://www.w3.org/2000/svg">
<path d="M1.35355 0.646447C1.15829 0.451184 0.841709 0.451184 0.646447 0.646447C0.451184 0.841709 0.451184 1.15829 0.646447 1.35355L1.35355 0.646447ZM9.35355 1.35355C9.54882 1.15829 9.54882 0.841709 9.35355 0.646447C9.15829 0.451184 8.84171 0.451184 8.64645 0.646447L9.35355 1.35355ZM0.646447 1.35355L4.29289 5L5 4.29289L1.35355 0.646447L0.646447 1.35355ZM5.70711 5L9.35355 1.35355L8.64645 0.646447L5 4.29289L5.70711 5ZM4.29289 5C4.68342 5.39052 5.31658 5.39052 5.70711 5L5 4.29289L5 4.29289L4.29289 5Z" fill="white"/>
</svg>
