<svg width="34" height="18" viewBox="0 0 34 18" fill="none" xmlns="http://www.w3.org/2000/svg">
<path d="M1.35355 0.646447C1.15829 0.451184 0.841709 0.451184 0.646447 0.646447C0.451184 0.841709 0.451184 1.15829 0.646447 1.35355L1.35355 0.646447ZM33.3536 1.35355C33.5488 1.15829 33.5488 0.841709 33.3536 0.646447C33.1583 0.451184 32.8417 0.451184 32.6464 0.646447L33.3536 1.35355ZM0.646447 1.35355L16.2929 17L17 16.2929L1.35355 0.646447L0.646447 1.35355ZM17.7071 17L33.3536 1.35355L32.6464 0.646447L17 16.2929L17.7071 17ZM16.2929 17C16.6834 17.3905 17.3166 17.3905 17.7071 17L17 16.2929L16.2929 17Z" fill="white"/>
</svg>
