<svg width="141" height="104" viewBox="0 0 141 104" fill="none" xmlns="http://www.w3.org/2000/svg">
<path d="M72.0775 26.6572L106.623 44.6019V84.9689M70.8739 55.9168L3.51831 32.1029C0.160562 30.9187 0.160562 26.2164 3.51831 25.0236L70.8739 1.2183C71.7199 0.924412 72.6357 0.924412 73.4816 1.23559L137.541 25.0408C140.82 26.2596 140.82 30.8582 137.541 32.077L73.4816 55.8908C72.6444 56.202 71.7199 56.2107 70.8739 55.9168ZM30.703 41.7149V66.8167C30.703 69.0295 32.0984 71.009 34.1916 71.7783L68.9988 84.4589C70.8652 85.1417 72.906 85.1504 74.7811 84.4848L109.911 72.0463C112.03 71.2942 113.452 69.3062 113.452 67.076V41.032L74.9032 54.8622C73.0804 55.5192 71.0832 55.5278 69.2517 54.9054L30.703 41.7149ZM111.69 103H102.376C101.757 103 101.259 102.507 101.259 101.894V91.2097C101.259 88.0547 103.841 85.4875 107.033 85.4875C110.216 85.4875 112.807 88.0461 112.807 91.2097V101.894C112.807 102.499 112.301 103 111.69 103Z" stroke="url(#paint0_linear)" stroke-width="2" stroke-miterlimit="10" stroke-linecap="round"/>
<defs>
<linearGradient id="paint0_linear" x1="11.4477" y1="93.9734" x2="139.313" y2="9.8839" gradientUnits="userSpaceOnUse">
<stop stop-color="#197CD8"/>
<stop offset="0.414583" stop-color="#F6029C"/>
<stop offset="0.732292" stop-color="#FFF200"/>
<stop offset="1" stop-color="#31EDA9"/>
</linearGradient>
</defs>
</svg>
