<svg width="1924" height="251" viewBox="0 0 1924 251" fill="none" xmlns="http://www.w3.org/2000/svg">
<path d="M723.819 93.3779C604.839 93.3779 611.286 188.947 489.712 188.947C368.137 188.947 364.9 93.3779 271.737 93.3779C178.574 93.3779 167 170.894 102.721 178.771C38.4411 186.648 17 145.366 2 125.69V251H1922V1L1921.93 1.1373C1906.94 32.3822 1885.31 77.4347 1803.94 77.4347C1734.08 77.4347 1703.5 2.58618 1614.84 24.031C1526.17 45.4758 1533.06 146.214 1448.51 146.214C1363.96 146.214 1344.84 77.4347 1232.58 77.4347C1088.05 77.4347 1099.47 180.63 974.709 180.63C845.654 180.63 842.799 93.3779 723.819 93.3779Z" fill="url(#paint0_linear)" fill-opacity="0.3"/>
<path d="M723.819 93.3779C604.839 93.3779 611.286 188.947 489.712 188.947C368.137 188.947 364.9 93.3779 271.737 93.3779C178.574 93.3779 167 170.894 102.721 178.771C38.4411 186.648 17 145.366 2 125.69V251H1922V1C1904 28.2887 1892.5 77.4347 1811 77.4347C1741.15 77.4347 1707 5.40141 1617.84 23.1507C1528.67 40.9 1533.06 146.214 1448.51 146.214C1363.96 146.214 1344.84 77.4347 1232.58 77.4347C1088.05 77.4347 1099.47 180.63 974.709 180.63C845.654 180.63 842.799 93.3779 723.819 93.3779Z" fill="url(#paint1_linear)"/>
<path d="M723.819 93.3779V94.8779V93.3779ZM974.709 180.63V179.13V180.63ZM489.712 190.447C520.319 190.447 542.938 184.428 561.507 175.362C580.046 166.311 594.486 154.247 608.703 142.311C622.95 130.35 636.967 118.522 654.809 109.654C672.617 100.803 694.293 94.8779 723.819 94.8779V91.8779C693.855 91.8779 671.719 97.899 653.474 106.967C635.263 116.019 620.984 128.083 606.774 140.013C592.534 151.969 578.354 163.798 560.191 172.666C542.058 181.519 519.892 187.447 489.712 187.447V190.447ZM723.819 94.8779C782.823 94.8779 812.956 116.453 844.636 138.24C876.444 160.115 909.729 182.13 974.709 182.13V179.13C910.634 179.13 877.964 157.52 846.336 135.768C814.579 113.928 783.795 91.8779 723.819 91.8779V94.8779ZM974.709 182.13C1006.13 182.13 1029.04 175.628 1048 165.839C1066.91 156.072 1081.83 143.049 1097.19 130.182C1112.59 117.291 1128.47 104.508 1149.48 94.9237C1170.46 85.348 1196.63 78.9347 1232.58 78.9347V75.9347C1196.25 75.9347 1169.65 82.4208 1148.23 92.1944C1126.83 101.96 1110.68 114.975 1095.27 127.882C1079.82 140.814 1065.17 153.591 1046.62 163.173C1028.11 172.732 1005.67 179.13 974.709 179.13V182.13ZM1232.58 78.9347C1288.32 78.9347 1320.89 95.9837 1350.17 113.119C1379.5 130.278 1405.76 147.714 1448.51 147.714V144.714C1406.7 144.714 1381.13 127.76 1351.69 110.53C1322.21 93.2753 1289.09 75.9347 1232.58 75.9347V78.9347ZM489.712 187.447C459.529 187.447 436.753 181.518 418.109 172.659C399.445 163.791 384.858 151.958 371.051 140.027C343.47 116.196 318.961 91.8779 271.737 91.8779V94.8779C317.676 94.8779 341.367 118.344 369.089 142.297C382.933 154.259 397.773 166.318 416.821 175.369C435.888 184.429 459.107 190.447 489.712 190.447V187.447ZM1612.24 25.4766C1653.24 14.121 1684.88 27.2356 1715.2 43.4196C1745.42 59.5418 1774.6 78.9347 1810 78.9347V75.9347C1775.55 75.9347 1747.23 57.1103 1716.62 40.7729C1686.12 24.4973 1653.6 10.91 1611.44 22.5854L1612.24 25.4766ZM1448.51 147.714C1469.98 147.714 1485.87 141.406 1498.91 131.558C1511.89 121.75 1521.98 108.463 1531.91 94.6339C1551.85 66.8744 1571.25 36.8271 1612.24 25.4766L1611.44 22.5854C1569.26 34.2658 1549.28 65.31 1529.47 92.884C1519.54 106.722 1509.68 119.662 1497.1 129.165C1484.58 138.627 1469.31 144.714 1448.51 144.714V147.714ZM102.538 177.282C70.7855 181.173 49.7514 172.927 34.7975 161.376C19.7342 149.74 10.8168 134.781 3.19291 124.78L0.807094 126.599C8.18322 136.275 17.4864 151.795 32.9635 163.75C48.5501 175.79 70.3762 184.246 102.903 180.26L102.538 177.282ZM102.903 180.26C135.63 176.25 155.002 154.441 177.402 134.234C199.852 113.983 225.69 94.8779 271.737 94.8779V91.8779C224.621 91.8779 198.09 111.531 175.393 132.007C152.645 152.528 134.091 173.416 102.538 177.282L102.903 180.26ZM1810 78.9347C1851.12 78.9347 1876.51 65.442 1893.12 48.9174C1909.65 32.4754 1917.41 13.0583 1923.33 1.69311L1920.67 0.306885C1914.59 11.9727 1907.1 30.773 1891 46.7906C1874.99 62.7256 1850.37 75.9347 1810 75.9347V78.9347Z" fill="url(#paint2_linear)"/>
<defs>
<linearGradient id="paint0_linear" x1="1.99999" y1="245.718" x2="1926.99" y2="237.766" gradientUnits="userSpaceOnUse">
<stop stop-color="#197CD8"/>
<stop offset="0.350205" stop-color="#F6029C"/>
<stop offset="0.683159" stop-color="#FFF200"/>
<stop offset="1" stop-color="#31EDA9"/>
</linearGradient>
<linearGradient id="paint1_linear" x1="1922" y1="1" x2="1922" y2="280.93" gradientUnits="userSpaceOnUse">
<stop offset="0.278641" stop-color="#0A0A1E" stop-opacity="0"/>
<stop offset="0.885936" stop-color="#0A0A1E"/>
</linearGradient>
<linearGradient id="paint2_linear" x1="1925" y1="192.901" x2="2.00247" y2="188.357" gradientUnits="userSpaceOnUse">
<stop stop-color="#31EDA9"/>
<stop offset="0.327703" stop-color="#FFF200"/>
<stop offset="0.663086" stop-color="#F6029C"/>
<stop offset="1" stop-color="#197CD8"/>
</linearGradient>
</defs>
</svg>
