<svg width="266" height="35" viewBox="0 0 266 35" fill="none" xmlns="http://www.w3.org/2000/svg">
<path d="M34.7781 7.67348C31.8046 7.67348 30.5141 9.24022 28.1713 9.24022C26.6846 9.24022 25.7642 8.50331 24.6379 7.6895C23.0771 6.55851 20.0489 3.09503 14.4623 3.09503C6.72922 3.09503 -0.0480761 9.51576 0.000195261 18.426C-0.0480761 27.3362 6.72922 33.7569 14.4591 33.7569C20.0489 33.7569 23.0739 30.2934 24.6347 29.1624C25.761 28.3454 26.6846 27.6117 28.1681 27.6117C30.5109 27.6117 31.7981 29.1784 34.7749 29.1784C39.9045 29.1784 43.7083 24.2924 43.7083 18.4003C43.7083 12.5083 39.9077 7.67348 34.7781 7.67348ZM34.984 23.8278C33.9961 23.8278 33.346 23.4626 32.5061 23.0108C31.2897 22.3572 29.6613 21.6523 27.975 21.6523C25.2429 21.6523 23.2605 22.9179 21.7706 23.8599C20.4383 24.7025 19.1124 25.5484 16.8308 25.5484C13.233 25.5484 10.0696 22.4726 10.0696 18.426C10.0696 14.3794 13.233 11.3036 16.8308 11.3036C19.1124 11.3036 20.4383 12.1494 21.7706 12.992C23.2605 13.934 25.2429 15.1996 27.975 15.1996C29.6613 15.1996 31.2897 14.4915 32.5061 13.8411C33.346 13.3893 33.9961 13.0241 34.984 13.0241C37.3365 13.0241 39.0807 15.5007 39.0807 18.426C39.0807 21.3512 37.3332 23.8278 34.984 23.8278Z" fill="url(#paint0_linear)"/>
<path d="M88.1018 28.2589C83.1524 28.2589 79.1266 24.2507 79.1266 19.3231V11.2138C79.1266 9.79769 80.2786 8.65068 81.701 8.65068C83.1234 8.65068 84.2755 9.79769 84.2755 11.2138V19.3231C84.2755 21.4248 85.9907 23.1326 88.1018 23.1326C90.2129 23.1326 91.9281 21.4248 91.9281 19.3231V11.2138C91.9281 9.79769 93.0802 8.65068 94.5026 8.65068C95.925 8.65068 97.0771 9.79769 97.0771 11.2138V19.3231C97.0771 24.2507 93.0512 28.2589 88.1018 28.2589ZM119.269 8.65068C117.129 8.65068 115.034 9.5574 113.847 10.9287C112.659 9.5606 110.564 8.65068 108.424 8.65068C104.015 8.65068 100.427 12.2231 100.427 16.6125V25.6957C100.427 27.1119 101.579 28.2589 103.002 28.2589C104.424 28.2589 105.576 27.1119 105.576 25.6957V16.6125C105.576 15.049 106.854 13.777 108.424 13.777C109.994 13.777 111.272 15.049 111.272 16.6125V25.6957C111.272 27.1119 112.424 28.2589 113.847 28.2589C115.269 28.2589 116.421 27.1119 116.421 25.6957V16.6125C116.421 15.049 117.699 13.777 119.269 13.777C120.839 13.777 122.117 15.049 122.117 16.6125V25.6957C122.117 27.1119 123.269 28.2589 124.692 28.2589C126.114 28.2589 127.266 27.1119 127.266 25.6957V16.6125C127.266 12.2231 123.678 8.65068 119.269 8.65068ZM66.753 18.4548C66.753 23.8598 62.3346 28.2589 56.9056 28.2589C55.2065 28.2589 53.3915 27.7687 52.2072 26.9196V32.4336C52.2072 33.8498 51.0552 34.9968 49.6328 34.9968C48.2104 34.9968 47.0583 33.8498 47.0583 32.4336V18.4548C47.0583 13.0497 51.4767 8.65068 56.9056 8.65068C62.3346 8.65068 66.753 13.0497 66.753 18.4548ZM61.6041 18.4548C61.6041 15.8756 59.4962 13.777 56.9056 13.777C54.3151 13.777 52.2072 15.8756 52.2072 18.4548C52.2072 21.034 54.3151 23.1326 56.9056 23.1326C59.4962 23.1326 61.6041 21.034 61.6041 18.4548ZM75.0686 25.6957V11.2138C75.0686 9.79769 73.9165 8.65068 72.4941 8.65068C71.0717 8.65068 69.9196 9.79769 69.9196 11.2138V25.6957C69.9196 27.1119 71.0717 28.2589 72.4941 28.2589C73.9165 28.2589 75.0686 27.1119 75.0686 25.6957ZM133.744 23.1358C132.322 23.1358 131.17 24.2828 131.17 25.6989C131.17 27.1151 132.322 28.2621 133.744 28.2621C135.166 28.2621 136.318 27.1151 136.318 25.6989C136.318 24.2828 135.166 23.1358 133.744 23.1358ZM200.619 18.7527V26.8171C200.619 27.6149 199.972 28.2589 199.171 28.2589C198.37 28.2589 197.723 27.6149 197.723 26.8171V25.3753C195.911 27.2048 193.655 28.2621 191.068 28.2621C185.803 28.2621 181.517 23.9976 181.517 18.7527C181.517 13.5111 185.8 9.24341 191.068 9.24341C196.336 9.24341 200.619 13.5079 200.619 18.7527ZM197.723 18.7527C197.723 15.1002 194.736 12.127 191.068 12.127C187.399 12.127 184.413 15.1002 184.413 18.7527C184.413 22.4053 187.399 25.3785 191.068 25.3785C194.736 25.3785 197.723 22.4053 197.723 18.7527ZM243.075 22.5206C242.799 22.3091 242.496 22.2162 242.197 22.2162C241.83 22.2162 241.405 22.4373 241.093 22.8025C239.696 24.427 237.849 25.3785 235.764 25.3785C232.095 25.3785 229.109 22.4053 229.109 18.7527C229.109 15.1002 232.095 12.127 235.764 12.127C237.846 12.127 239.696 13.0753 241.093 14.7029C241.405 15.0682 241.83 15.2893 242.197 15.2893C242.496 15.2893 242.795 15.1996 243.075 14.9849C243.445 14.7029 243.642 14.2704 243.642 13.8443C243.642 13.5655 243.545 13.2259 243.342 12.9632C241.518 10.5987 238.757 9.24341 235.767 9.24341C230.502 9.24341 226.216 13.5079 226.216 18.7527C226.216 23.9976 230.499 28.2621 235.767 28.2621C238.757 28.2621 241.518 26.9068 243.342 24.5423C243.545 24.2796 243.642 23.9399 243.642 23.6612C243.642 23.2351 243.445 22.8025 243.075 22.5206ZM177.767 26.8171V17.7819C177.767 13.0721 173.919 9.24021 169.188 9.24021C164.457 9.24021 160.609 13.0721 160.609 17.7819V26.8171C160.609 27.6149 161.255 28.2589 162.057 28.2589C162.858 28.2589 163.505 27.6149 163.505 26.8171V17.7819C163.505 14.6613 166.054 12.1238 169.188 12.1238C172.322 12.1238 174.871 14.6613 174.871 17.7819V26.8171C174.871 27.6149 175.518 28.2589 176.319 28.2589C177.121 28.2589 177.767 27.6149 177.767 26.8171ZM222.824 26.8171V17.7819C222.824 13.0721 218.975 9.24021 214.245 9.24021C209.514 9.24021 205.665 13.0721 205.665 17.7819V26.8171C205.665 27.6149 206.312 28.2589 207.113 28.2589C207.915 28.2589 208.561 27.6149 208.561 26.8171V17.7819C208.561 14.6613 211.11 12.1238 214.245 12.1238C217.379 12.1238 219.928 14.6613 219.928 17.7819V26.8171C219.928 27.6149 220.575 28.2589 221.376 28.2589C222.177 28.2589 222.824 27.6149 222.824 26.8171ZM265 19.0155C265 19.8101 264.353 20.4573 263.552 20.4573H249.029C249.788 23.2863 252.376 25.3753 255.452 25.3753C256.463 25.3753 257.435 25.1542 258.336 24.7217C259.056 24.3757 259.922 24.6769 260.27 25.3945C260.617 26.1122 260.315 26.9741 259.594 27.3201C258.297 27.9417 256.904 28.2589 255.452 28.2589C250.187 28.2589 245.901 23.9944 245.901 18.7495C245.901 13.5047 250.184 9.24021 255.452 9.24021C260.72 9.24021 265.003 13.5047 265.003 18.7495L265 19.0155ZM248.881 17.7659H262.024C261.541 14.5812 258.783 12.127 255.452 12.127C252.121 12.127 249.36 14.5812 248.881 17.7659ZM155.563 26.8171V10.6852C155.563 9.8874 154.916 9.24341 154.115 9.24341C153.313 9.24341 152.666 9.8874 152.666 10.6852V26.8171C152.666 27.6149 153.313 28.2589 154.115 28.2589C154.916 28.2589 155.563 27.6149 155.563 26.8171ZM148.805 9.44205H143.118C143.157 5.82159 146.124 2.88356 149.77 2.88356C150.571 2.88356 151.218 2.23956 151.218 1.44178C151.218 0.643995 150.571 0 149.77 0C144.505 0 140.219 4.26446 140.219 9.50934V26.8171C140.219 27.6149 140.866 28.2589 141.667 28.2589C142.468 28.2589 143.115 27.6149 143.115 26.8171V12.1334H148.805C149.551 12.1334 150.156 11.531 150.156 10.7877C150.156 10.0444 149.551 9.44205 148.805 9.44205Z" fill="url(#paint1_linear)"/>
<defs>
<linearGradient id="paint0_linear" x1="0.000195261" y1="18.4253" x2="43.712" y2="18.4253" gradientUnits="userSpaceOnUse">
<stop stop-color="#31EDA9"/>
<stop offset="0.0618" stop-color="#71EF74"/>
<stop offset="0.1263" stop-color="#AEF043"/>
<stop offset="0.1813" stop-color="#DAF11E"/>
<stop offset="0.2239" stop-color="#F5F208"/>
<stop offset="0.2488" stop-color="#FFF200"/>
<stop offset="0.27" stop-color="#FEDC0E"/>
<stop offset="0.3843" stop-color="#FA685A"/>
<stop offset="0.4629" stop-color="#F71F89"/>
<stop offset="0.4991" stop-color="#F6029C"/>
<stop offset="0.505" stop-color="#F0059E"/>
<stop offset="0.5554" stop-color="#BE21AB"/>
<stop offset="0.6084" stop-color="#9239B7"/>
<stop offset="0.663" stop-color="#6C4EC1"/>
<stop offset="0.7196" stop-color="#4E5FCA"/>
<stop offset="0.7788" stop-color="#376CD0"/>
<stop offset="0.8419" stop-color="#2675D4"/>
<stop offset="0.9114" stop-color="#1C7AD7"/>
<stop offset="1" stop-color="#197CD8"/>
</linearGradient>
<linearGradient id="paint1_linear" x1="47.0577" y1="17.5" x2="265.002" y2="17.5" gradientUnits="userSpaceOnUse">
<stop stop-color="#197CD8"/>
<stop offset="0.1831" stop-color="#1A80D6"/>
<stop offset="0.3728" stop-color="#1D8DD1"/>
<stop offset="0.5656" stop-color="#21A1C8"/>
<stop offset="0.7605" stop-color="#27BEBC"/>
<stop offset="0.9553" stop-color="#2FE3AD"/>
<stop offset="1" stop-color="#31EDA9"/>
</linearGradient>
</defs>
</svg>
