<svg width="84" height="84" viewBox="0 0 84 84" fill="none" xmlns="http://www.w3.org/2000/svg">
<path d="M46.8545 30.0867L53.2292 36.4572L8.59048 81.0667C7.81201 81.8447 6.75617 82.2817 5.65524 82.2817C4.55432 82.2817 3.49848 81.8447 2.72001 81.0667L2.21581 80.5628C1.43734 79.7849 1 78.7297 1 77.6295C1 76.5293 1.43734 75.4742 2.21581 74.6962L46.8545 30.0867Z" stroke="url(#paint0_linear)" stroke-width="2" stroke-miterlimit="10" stroke-linecap="round"/>
<path d="M58.6133 10.5936C58.5643 10.5478 58.5066 10.5121 58.4437 10.4886C58.3807 10.4651 58.3137 10.4543 58.2466 10.4568C58.1795 10.4594 58.1135 10.4752 58.0525 10.5033C57.9915 10.5315 57.9367 10.5714 57.8912 10.6209L47.0413 21.4592C46.9411 21.561 46.8841 21.6976 46.8823 21.8404L46.8414 30.1008L53.1997 36.4549L61.4246 36.3778C61.4958 36.377 61.5662 36.3622 61.6317 36.3341C61.6972 36.3061 61.7564 36.2654 61.8061 36.2144L72.6561 25.3761C72.7037 25.3288 72.7415 25.2726 72.7673 25.2107C72.7932 25.1487 72.8064 25.0823 72.8064 25.0152C72.8064 24.9481 72.7932 24.8817 72.7673 24.8198C72.7415 24.7579 72.7037 24.7017 72.6561 24.6544L58.6133 10.5936Z" stroke="url(#paint1_linear)" stroke-width="2" stroke-miterlimit="10" stroke-linecap="round"/>
<path d="M69.9702 12.8527L70.4744 13.3565C71.2529 14.1345 71.6902 15.1896 71.6902 16.2898C71.6902 17.39 71.2529 18.4452 70.4744 19.2232L69.0389 20.6577L62.6674 14.2904L64.1029 12.8559C64.8814 12.0779 65.9372 11.6409 67.0382 11.6409C68.1391 11.6409 69.1949 12.0779 69.9734 12.8559L69.9702 12.8527Z" stroke="url(#paint2_linear)" stroke-width="2" stroke-miterlimit="10" stroke-linecap="round"/>
<path d="M81.998 58.0408C82.6974 47.4385 79.4774 35.9194 72.565 25.7074L65.9569 32.3157L62.5325 35.7333C69.151 42.8804 75.3255 50.4257 81.0215 58.3267C81.0884 58.4143 81.1802 58.4795 81.2849 58.5138C81.3896 58.5482 81.5023 58.55 81.608 58.519C81.7138 58.488 81.8077 58.4258 81.8773 58.3404C81.9469 58.255 81.989 58.1505 81.998 58.0408Z" stroke="url(#paint3_linear)" stroke-width="2" stroke-miterlimit="10" stroke-linecap="round"/>
<path d="M57.6409 10.7117C47.3586 3.67226 35.7184 0.386274 25.0093 1.0943C24.8951 1.09966 24.7855 1.14074 24.696 1.21175C24.6065 1.28275 24.5415 1.38009 24.5104 1.48999C24.4793 1.59988 24.4835 1.71678 24.5225 1.82414C24.5615 1.93151 24.6333 2.02391 24.7277 2.08827C32.7209 7.83828 40.3503 14.0772 47.5721 20.7694L57.6409 10.7117Z" stroke="url(#paint4_linear)" stroke-width="2" stroke-miterlimit="10" stroke-linecap="round"/>
<defs>
<linearGradient id="paint0_linear" x1="70.7813" y1="10" x2="1.28125" y2="82" gradientUnits="userSpaceOnUse">
<stop stop-color="#31EDA9"/>
<stop offset="0.3" stop-color="#FFF200"/>
<stop offset="0.633333" stop-color="#F6029C"/>
<stop offset="1" stop-color="#197CD8"/>
</linearGradient>
<linearGradient id="paint1_linear" x1="70.7813" y1="10" x2="1.28125" y2="82" gradientUnits="userSpaceOnUse">
<stop stop-color="#31EDA9"/>
<stop offset="0.3" stop-color="#FFF200"/>
<stop offset="0.633333" stop-color="#F6029C"/>
<stop offset="1" stop-color="#197CD8"/>
</linearGradient>
<linearGradient id="paint2_linear" x1="70.7813" y1="10" x2="1.28125" y2="82" gradientUnits="userSpaceOnUse">
<stop stop-color="#31EDA9"/>
<stop offset="0.3" stop-color="#FFF200"/>
<stop offset="0.633333" stop-color="#F6029C"/>
<stop offset="1" stop-color="#197CD8"/>
</linearGradient>
<linearGradient id="paint3_linear" x1="70.7813" y1="10" x2="1.28125" y2="82" gradientUnits="userSpaceOnUse">
<stop stop-color="#31EDA9"/>
<stop offset="0.3" stop-color="#FFF200"/>
<stop offset="0.633333" stop-color="#F6029C"/>
<stop offset="1" stop-color="#197CD8"/>
</linearGradient>
<linearGradient id="paint4_linear" x1="70.7813" y1="10" x2="1.28125" y2="82" gradientUnits="userSpaceOnUse">
<stop stop-color="#31EDA9"/>
<stop offset="0.3" stop-color="#FFF200"/>
<stop offset="0.633333" stop-color="#F6029C"/>
<stop offset="1" stop-color="#197CD8"/>
</linearGradient>
</defs>
</svg>
