<svg width="75" height="85" viewBox="0 0 75 85" fill="none" xmlns="http://www.w3.org/2000/svg">
<path d="M53.0559 34.4104C51.9054 34.4104 51.1461 34.8368 50.168 35.3604C48.7706 36.1203 46.8561 36.9451 44.8951 36.9451C41.7137 36.9451 39.4033 35.4716 37.6659 34.3734C36.1148 33.3957 34.573 32.4087 31.9179 32.4087C27.7257 32.4087 24.0413 35.9859 24.0413 40.6984C24.0413 45.4109 27.7257 48.9835 31.9179 48.9835C34.573 48.9835 36.1101 48.0011 37.6659 47.0188C39.4033 45.9252 41.7137 44.4517 44.8951 44.4517C46.8561 44.4517 48.7519 45.2765 50.168 46.0318C51.1461 46.5554 51.9054 46.9817 53.0559 46.9817C55.7902 46.9817 57.821 44.1042 57.821 40.6984C57.821 37.2926 55.7995 34.4104 53.0559 34.4104Z" stroke="url(#paint0_linear)" stroke-width="2" stroke-miterlimit="10" stroke-linecap="round"/>
<path d="M72.7686 13.3363C72.7355 13.1096 72.6445 12.8951 72.5042 12.7134C72.3639 12.5316 72.1791 12.3887 71.9675 12.2984C67.8172 10.5283 46.5209 2.59539 46.5209 2.59539C43.5249 1.50873 40.3564 0.968751 37.1676 1.0014C33.9789 0.968751 30.8103 1.50873 27.8143 2.59539C27.8143 2.59539 6.518 10.5283 2.36773 12.2984C2.15557 12.388 1.9703 12.5307 1.82992 12.7125C1.68954 12.8944 1.59882 13.1093 1.56655 13.3363C0.881829 17.97 -0.874234 34.7533 9.13579 56.4529C16.4442 72.3002 32.491 81.7066 36.3292 83.7918C36.5864 83.9285 36.8736 84 37.1653 84C37.4569 84 37.7441 83.9285 38.0014 83.7918C41.8396 81.7205 57.891 72.3141 65.1994 56.4529C75.2094 34.7579 73.4534 17.9654 72.7686 13.3363ZM52.8138 53.1862C49.3529 53.1862 47.853 51.3651 45.1235 51.3651C43.3953 51.3651 42.3287 52.2224 41.0104 53.1723C39.1892 54.4836 35.6677 58.5149 29.1605 58.5149C20.1566 58.5149 12.266 51.0454 12.3219 40.6798C12.266 30.3327 20.1566 22.8818 29.1605 22.8818C35.6817 22.8818 39.1892 26.9131 41.0104 28.2244C42.3193 29.1511 43.3953 30.0316 45.1235 30.0316C47.853 30.0316 49.3529 28.2105 52.8138 28.2105C58.7854 28.2105 63.2198 33.8312 63.2198 40.6844C63.2198 47.5377 58.79 53.2047 52.8138 53.2047V53.1862Z" stroke="url(#paint1_linear)" stroke-width="2" stroke-miterlimit="10" stroke-linecap="round"/>
<defs>
<linearGradient id="paint0_linear" x1="77.5" y1="1" x2="1" y2="87" gradientUnits="userSpaceOnUse">
<stop offset="0.0552082" stop-color="#31EDA9"/>
<stop offset="0.315625" stop-color="#FFF200"/>
<stop offset="0.608278" stop-color="#F6029C"/>
<stop offset="0.914583" stop-color="#197CD8"/>
</linearGradient>
<linearGradient id="paint1_linear" x1="77.5" y1="1" x2="1" y2="87" gradientUnits="userSpaceOnUse">
<stop offset="0.0552082" stop-color="#31EDA9"/>
<stop offset="0.315625" stop-color="#FFF200"/>
<stop offset="0.608278" stop-color="#F6029C"/>
<stop offset="0.914583" stop-color="#197CD8"/>
</linearGradient>
</defs>
</svg>
