<svg width="55" height="101" viewBox="0 0 55 101" fill="none" xmlns="http://www.w3.org/2000/svg">
<path d="M15.9629 52.2463V31.8745C15.9628 30.35 16.2613 28.8405 16.8414 27.432C17.4215 26.0236 18.2717 24.7439 19.3436 23.6659C20.4154 22.5879 21.6879 21.7329 23.0884 21.1495C24.4888 20.5661 25.9899 20.2659 27.5057 20.266C29.0215 20.2659 30.5226 20.5661 31.923 21.1495C33.3235 21.7329 34.596 22.5879 35.6679 23.6659C36.7397 24.7439 37.59 26.0236 38.17 27.432C38.7501 28.8405 39.0486 30.35 39.0486 31.8745L39.0395 52.2372M15.9632 41.5872L15.9662 21.2123L16.1381 19.729C16.7796 14.2116 19.2636 9.07629 23.1839 5.163L27.1984 1.12564C27.2784 1.0452 27.3869 1 27.5 1C27.6132 1 27.7216 1.0452 27.8016 1.12564L31.8162 5.163C35.7341 9.07891 38.2167 14.2146 38.8589 19.7321L39.0308 21.2093V41.5811M15.9481 41.5723L5.97667 50.0353C4.4177 51.3576 3.16465 53.0064 2.30505 54.8663C1.44546 56.7263 1.00007 58.7526 1 60.8036V62.3385C0.999773 62.3951 1.01069 62.4512 1.03213 62.5036C1.05358 62.5559 1.08512 62.6035 1.12494 62.6435C1.16475 62.6836 1.21206 62.7153 1.26412 62.7369C1.31619 62.7584 1.37199 62.7694 1.4283 62.7692L15.74 62.7662C15.807 62.7663 15.8731 62.7822 15.9328 62.8128C15.9926 62.8434 16.0443 62.8877 16.0838 62.9421L20.1858 68.578C20.2253 68.6324 20.2771 68.6767 20.3368 68.7073C20.3966 68.7379 20.4626 68.7539 20.5296 68.7539L34.4734 68.757C34.5404 68.7569 34.6065 68.7409 34.6662 68.7103C34.7259 68.6798 34.7777 68.6355 34.8172 68.581L38.9162 62.9421C38.9563 62.8878 39.0087 62.8438 39.069 62.8138C39.1293 62.7837 39.1958 62.7685 39.263 62.7692L53.5747 62.7662C53.6874 62.7658 53.7954 62.7207 53.8751 62.6405C53.9548 62.5604 53.9997 62.4518 54 62.3385V60.8036C54.0011 58.7524 53.5562 56.7257 52.6965 54.8656C51.8369 53.0055 50.5832 51.3569 49.0233 50.0353L39.0519 41.5723M27.5058 78.0933V100M11.75 71.5227L11.753 82.1121M5.65101 73.5674L5.65402 78.0961M22.7166 73.5674L22.7136 90.6541M32.2984 73.5709L32.2984 90.6545M43.2622 71.5234L43.2622 82.1097M49.3611 73.5677V78.0934M27.5062 31.6077C28.7767 31.6077 29.9951 32.1152 30.8934 33.0187C31.7917 33.9221 32.2964 35.1474 32.2964 36.4251L32.2964 68.7442H22.7161V36.4294C22.7155 35.7964 22.839 35.1695 23.0795 34.5845C23.32 33.9995 23.6727 33.468 24.1176 33.0202C24.5624 32.5724 25.0907 32.2172 25.6721 31.9748C26.2536 31.7324 26.8768 31.6077 27.5062 31.6077ZM42.6922 62.7598C42.6892 62.8296 42.6802 62.8933 42.6802 62.96C42.6798 64.0489 43.1095 65.0934 43.8748 65.8636C44.6401 66.6338 45.6783 67.0668 46.761 67.0672C47.8438 67.0676 48.8823 66.6354 49.6482 65.8657C50.414 65.0961 50.8445 64.0519 50.8449 62.9631C50.8449 62.8963 50.8389 62.8296 50.8359 62.7659L42.6922 62.7598ZM4.45609 62.751C4.45307 62.8207 4.44402 62.8844 4.44402 62.9512C4.46672 64.0255 4.90692 65.0481 5.67029 65.8C6.43365 66.5518 7.45947 66.9731 8.52794 66.9735C9.59641 66.9739 10.6225 66.5534 11.3865 65.8021C12.1504 65.0508 12.5913 64.0285 12.6148 62.9542L12.6027 62.754L4.45609 62.751Z" stroke="url(#paint0_linear)" stroke-width="2" stroke-miterlimit="10" stroke-linecap="round"/>
<defs>
<linearGradient id="paint0_linear" x1="50.9921" y1="0.822115" x2="4.70871" y2="99.7149" gradientUnits="userSpaceOnUse">
<stop stop-color="#197CD8"/>
<stop offset="0.305208" stop-color="#F6029C"/>
<stop offset="0.648958" stop-color="#FFF200"/>
<stop offset="1" stop-color="#31EDA9"/>
</linearGradient>
</defs>
</svg>
