<svg width="85" height="85" viewBox="0 0 85 85" fill="none" xmlns="http://www.w3.org/2000/svg">
<path d="M46.0929 38.9129L22.9137 62.0921M81.5113 8.44489L83.9596 1.6187C83.9875 1.53718 83.9924 1.44952 83.9736 1.36541C83.9548 1.2813 83.9131 1.20403 83.8532 1.14213C83.7932 1.08024 83.7173 1.03613 83.6338 1.01469C83.5504 0.99325 83.4626 0.995313 83.3802 1.02065L76.5587 3.46892C71.5769 5.20021 67.0438 8.02062 63.2895 11.7248L17.9076 57.0879L27.9157 67.1053L73.2741 21.7422C76.9741 17.9771 79.7881 13.4345 81.5113 8.44489ZM16.0177 55.8316L29.1702 68.984C30.1664 69.9802 30.1664 71.5955 29.1702 72.5917L29.1669 72.595C28.1706 73.5913 26.5554 73.5913 25.5591 72.595L12.4067 59.4426C11.4104 58.4464 11.4104 56.8311 12.4067 55.8349L12.41 55.8316C13.4062 54.8353 15.0215 54.8353 16.0177 55.8316ZM9.8306 79.5848C9.8306 82.0233 7.8538 84.0001 5.4153 84.0001C2.9768 84.0001 1 82.0233 1 79.5848C1 77.1463 2.9768 75.1695 5.4153 75.1695C7.8538 75.1695 9.8306 77.1463 9.8306 79.5848ZM9.86895 79.0616L20.7133 68.2173L16.7839 64.3019L5.82276 75.2677C6.82923 75.3424 7.77973 75.7597 8.51595 76.45C9.25217 77.1403 9.72968 78.062 9.86895 79.0616Z" stroke="url(#paint0_linear)" stroke-width="2" stroke-miterlimit="10" stroke-linecap="round"/>
<defs>
<linearGradient id="paint0_linear" x1="84" y1="1" x2="-0.499996" y2="84" gradientUnits="userSpaceOnUse">
<stop stop-color="#197CD8"/>
<stop offset="0.336458" stop-color="#F6029C"/>
<stop offset="0.675" stop-color="#FFF200"/>
<stop offset="1" stop-color="#31EDA9"/>
</linearGradient>
</defs>
</svg>
