<svg width="142" height="53" viewBox="0 0 142 53" fill="none" xmlns="http://www.w3.org/2000/svg">
<path d="M48.9394 22.4293C47.5301 22.3527 46.1855 22.0041 44.8629 21.5333C43.7393 21.1334 42.6193 20.7248 41.6316 20.0501C40.9314 19.566 40.2708 19.0285 39.6561 18.4424C37.785 16.6793 36.3911 14.5872 35.1331 12.3858C34.5617 11.3651 34.0792 10.2984 33.6908 9.19736C33.4925 8.64991 33.3457 8.59495 32.7861 8.82131C32.6781 8.8647 32.543 8.84734 32.4189 8.84734C28.3725 8.84734 24.3261 8.84999 20.2797 8.8553C20.1416 8.8553 19.8772 8.6962 19.878 9.04477C19.878 9.29571 19.8559 9.47144 20.2275 9.5358C21.6001 9.77301 22.9498 10.1143 24.0646 11.001C25.1794 11.8876 25.9006 12.9911 26.0753 14.4093C26.0944 14.5633 26.1326 14.7159 26.162 14.8685C26.1969 15.1352 26.1969 15.4052 26.162 15.672C25.8727 16.6736 25.5503 17.6614 25.106 18.6102C24.5089 19.8895 23.7613 21.0954 22.8786 22.203C21.6588 23.731 20.2393 25.0595 18.581 26.1204C16.8083 27.2544 14.9092 28.1142 12.8309 28.5647C12.3837 28.6617 11.9291 28.7253 11.4774 28.8041C11.3563 28.8612 11.2153 28.7846 11.097 28.8605L10.6564 28.8815C10.406 28.9386 10.146 28.8518 9.8978 28.9321H8.89758C8.61925 28.8526 8.33064 28.9451 8.05231 28.8801L7.61977 28.8612C7.49859 28.7889 7.35686 28.8612 7.23348 28.8063C6.06746 28.6865 4.91909 28.4364 3.81056 28.0607C2.54597 27.6333 1.37537 27.0258 0.242234 26.3395C0.0637807 26.2318 -0.0206724 26.1009 0.00429636 25.8796C0.0220611 25.6126 0.0262278 25.345 0.0167807 25.0776C0.0902182 24.8541 0.0101714 24.6191 0.0667182 24.3935C0.074062 24.2271 0.0821401 24.0608 0.0894839 23.8945C0.158515 23.7744 0.0946245 23.6377 0.139421 23.5148C0.259379 22.1898 0.495005 20.8775 0.843687 19.5923C1.61573 16.6521 2.90281 13.8671 4.64702 11.3625C5.31546 10.3961 6.05293 9.47777 6.85381 8.61448C7.21292 8.23264 7.56248 7.83923 7.94142 7.47547C11.8332 3.71073 16.814 1.22598 22.1986 0.363035C22.5474 0.305904 22.897 0.255281 23.2465 0.201043C23.3655 0.143189 23.5065 0.223462 23.6225 0.143189L23.9163 0.128002C24.0632 0.0672554 24.2277 0.151867 24.3716 0.0715945L24.8857 0.0506224C25.1361 -0.00650859 25.396 0.0802726 25.6443 0H27.55C27.7982 0.0802726 28.0582 -0.00650859 28.3086 0.0506224L28.8226 0.0715945C28.9695 0.151867 29.1318 0.0672554 29.278 0.128002L29.5717 0.143189C29.6877 0.223462 29.8287 0.143189 29.9484 0.201043C31.9114 0.497545 33.8406 0.912649 35.7133 1.59388C38.1755 2.48512 40.4917 3.72726 42.5878 5.28063C47.5513 8.95741 51.0496 14.2307 52.4747 20.1839C52.6231 20.7661 52.7379 21.3562 52.8183 21.9513C52.8411 22.14 52.786 22.1769 52.6179 22.1972C52.258 22.2391 51.9011 22.3028 51.5435 22.3584C51.4186 22.4062 51.2784 22.3396 51.1572 22.4091L50.5756 22.4293C50.0307 22.4626 49.4842 22.4626 48.9394 22.4293Z" fill="white"/>
<path d="M26.24 30.3254C26.2327 31.3957 26.2258 32.4655 26.2195 33.5348C26.146 34.0779 26.2055 34.6232 26.1857 35.1663C26.1798 35.3109 26.207 35.4556 26.1637 35.6002C26.1578 36.0862 26.1522 36.5719 26.1468 37.0574C26.0557 37.4725 26.157 37.8948 26.0932 38.3107C26.0858 38.6482 26.0787 38.9876 26.0719 39.3289C25.9867 39.6182 26.077 39.9219 26.0205 40.2148C26.0121 40.6005 26.0038 40.9862 25.9955 41.3719C25.9096 41.6655 26.008 41.9699 25.9419 42.265L25.9191 42.8992C25.8457 43.0735 25.9257 43.2608 25.8655 43.4373C25.8591 43.5752 25.852 43.7133 25.8442 43.8517C25.781 43.976 25.8442 44.1163 25.7928 44.2429C25.5857 45.8281 25.358 47.409 24.728 48.8994C24.244 50.0464 23.5478 51.0379 22.5248 51.7921C22.1723 52.0532 21.8191 51.9057 21.4761 51.8391C20.5895 51.6719 19.7122 51.4595 18.8478 51.2027C17.4018 50.7645 15.9837 50.2467 14.6398 49.5647C13.0781 48.7801 11.5979 47.8471 10.2204 46.7791C9.09458 45.9011 8.02166 44.9711 7.05375 43.937C5.73975 42.5278 4.58264 40.9842 3.60219 39.3325C2.79389 37.965 2.11351 36.5279 1.56944 35.039C1.0843 33.7464 0.715689 32.4142 0.467875 31.0579C0.336422 30.3217 0.192484 29.5899 0.154297 28.8197C1.59661 29.1459 3.01102 29.5118 4.47316 29.5957C4.58919 29.676 4.73019 29.5957 4.84989 29.6535L5.14364 29.6694C5.28538 29.7526 5.44914 29.6694 5.59381 29.7251L6.02709 29.7461C6.19967 29.822 6.3862 29.7461 6.56172 29.7946L7.36953 29.8191C8.32021 29.8745 9.27337 29.8745 10.224 29.8191L10.9584 29.8011C11.1369 29.7454 11.3256 29.8213 11.5055 29.7497L11.9271 29.7273C12.0512 29.676 12.1922 29.7447 12.3133 29.6745C13.8129 29.5834 15.2677 29.2406 16.7086 28.8559C18.3324 28.4223 19.9014 27.8097 21.3858 27.0298C21.8698 26.776 22.3339 26.4817 22.7965 26.1895C23.3635 25.8279 23.5309 25.8431 24.0259 26.3002C24.7382 26.9611 25.3412 27.7133 25.9257 28.4813C25.9992 28.5796 26.0498 28.6982 26.2085 28.649C26.3157 29.2044 26.2532 29.7656 26.24 30.3254Z" fill="white"/>
<path d="M27.3429 44.0218C27.337 43.6318 27.3314 43.2422 27.326 42.8532C27.3027 42.7586 27.2958 42.6608 27.3055 42.5639C27.3055 37.7765 27.3055 32.9888 27.3055 28.2009C27.2949 28.104 27.3023 28.0059 27.3275 27.9116L27.3466 24.1164C27.42 23.6333 27.3664 23.1473 27.3782 22.6628C27.3965 21.9223 27.3525 21.1803 27.4002 20.4398C27.4095 18.0846 27.4188 15.7295 27.4281 13.3743C27.4191 13.2517 27.4416 13.1289 27.4935 13.0171C27.7872 13.6528 28.0766 14.287 28.3644 14.9241C29.0349 16.4066 29.6981 17.8891 30.3722 19.3731C31.6074 22.0879 32.8691 24.7897 34.0669 27.5218C34.7623 29.1128 35.4959 30.6828 36.2061 32.2659C37.3801 34.8785 38.5497 37.4932 39.7149 40.1102C40.652 42.2103 41.5871 44.3121 42.5202 46.4155C42.5452 46.4834 42.5741 46.5498 42.6069 46.6144C42.7538 46.8531 42.6656 46.9977 42.4475 47.1553C40.4131 48.6204 38.1869 49.8077 35.8294 50.6852C34.484 51.187 33.0901 51.5226 31.6919 51.8379C31.3981 51.9037 31.0963 51.942 30.7974 51.9912C30.3326 52.0679 30.063 51.7273 29.7752 51.4915C28.7066 50.6172 28.1595 49.4355 27.8129 48.1403C27.6285 47.4161 27.5159 46.6759 27.4766 45.9303C27.4163 45.7611 27.5052 45.5766 27.4215 45.4096C27.4149 45.2165 27.4083 45.0241 27.4024 44.8311C27.3334 44.5649 27.4369 44.2865 27.3429 44.0218Z" fill="white"/>
<path d="M94.1407 33.4125C94.154 34.5696 94.4161 35.6298 95.3723 36.413C95.9312 36.8715 96.6112 37.0508 97.2978 37.2085C97.44 37.244 97.5849 37.2682 97.7311 37.2808C97.8824 37.2909 98.0021 37.3134 98.0043 37.4978C98.0043 37.7436 97.8178 37.6424 97.7105 37.6424C94.9831 37.6472 92.2558 37.6472 89.5289 37.6424C89.4782 37.5202 89.4488 37.3994 89.5428 37.2808C90.6099 37.1152 91.5499 36.6777 92.2174 35.8395C92.683 35.2545 92.9232 34.5335 93.0362 33.7908C93.0818 33.4899 93.1963 33.1992 93.178 32.8882C93.2514 32.7718 93.178 32.6337 93.2338 32.5144C93.2404 32.3697 93.2477 32.2301 93.2544 32.0884C93.3388 31.8715 93.2433 31.6357 93.3102 31.4151C93.317 31.0815 93.3239 30.7481 93.3307 30.415C93.4137 30.0678 93.316 29.7113 93.3843 29.3635C93.3917 28.8843 93.3988 28.4043 93.4056 27.9236C93.4747 27.1701 93.4166 26.4151 93.4372 25.6615C93.4453 25.3571 93.4137 25.0526 93.4548 24.7489L93.4592 19.1804C93.3858 18.735 93.4901 18.2822 93.4056 17.8368C93.3895 16.4497 92.2872 15.4394 91.0395 15.1371C90.8559 15.0923 90.6723 15.0084 90.4894 15.0113C90.1957 15.0164 90.1861 14.8558 90.1957 14.6497C90.2691 14.5774 90.3587 14.6042 90.4432 14.6042C92.6096 14.6042 94.776 14.6042 96.9424 14.6042C97.0268 14.6042 97.1172 14.5817 97.1906 14.6468C97.502 15.5016 97.9118 16.3145 98.2782 17.1454C99.3034 19.4687 100.333 21.7904 101.367 24.1103C102.138 25.8387 102.92 27.5628 103.697 29.2883C104.056 30.0838 104.418 30.8793 104.774 31.6805C104.805 31.7492 104.817 31.8208 104.933 31.8584C105.132 31.452 105.339 31.0441 105.533 30.629C105.846 29.9586 106.162 29.289 106.453 28.6092C106.737 27.9482 107.055 27.3031 107.342 26.6436C107.66 25.911 107.998 25.1835 108.338 24.4589C109.341 22.3207 110.318 20.1712 111.269 18.0103C111.73 16.9612 112.184 15.909 112.63 14.8537C112.704 14.6758 112.792 14.5948 113.008 14.5962C115.142 14.6056 117.276 14.6013 119.411 14.6034C119.533 14.6034 119.687 14.547 119.69 14.7785C119.693 15.0207 119.516 14.9419 119.408 14.9527C118.723 15.0251 118.067 15.1494 117.507 15.5942C116.831 16.133 116.558 16.8511 116.485 17.6697C116.383 18.8268 116.328 19.9839 116.323 21.141C116.309 24.5941 116.291 28.048 116.304 31.5019C116.304 32.4883 116.325 33.4762 116.362 34.4669C116.419 35.9719 117.362 36.6893 118.662 37.1239C118.957 37.2211 119.263 37.2766 119.574 37.2888C119.72 37.2953 119.886 37.275 119.867 37.5057C119.848 37.7364 119.665 37.641 119.559 37.6417C116.742 37.6475 113.925 37.6489 111.108 37.646H108.725C108.681 37.5269 108.681 37.3963 108.725 37.2772L108.884 37.2591C109.007 37.2136 109.145 37.2823 109.264 37.2085C110.439 37.0884 111.44 36.6466 112.168 35.6956C112.51 35.248 112.554 34.7034 112.609 34.1813C112.632 33.9752 112.763 33.7698 112.682 33.5514C112.775 33.2621 112.669 32.9569 112.74 32.6641C112.747 32.0855 112.754 31.507 112.761 30.9284C112.818 30.7997 112.791 30.6637 112.791 30.5314C112.791 25.973 112.791 21.4153 112.791 16.8583C112.791 16.7318 112.885 16.569 112.704 16.4721C112.179 17.6061 111.651 18.7378 111.131 19.8711C110.361 21.5508 109.593 23.2317 108.829 24.9138C107.7 27.3993 106.592 29.8943 105.438 32.369C104.745 33.8558 104.168 35.3883 103.493 36.8809C103.456 36.9633 103.484 37.1195 103.312 37.1159C103.155 37.1159 103.122 36.993 103.077 36.8874C102.679 35.961 102.288 35.0317 101.883 34.1082C101.415 33.0408 100.937 31.9785 100.462 30.9147C100.094 30.0898 99.7269 29.2654 99.3607 28.4414C98.9832 27.6025 98.6006 26.7651 98.2224 25.9269C97.8307 25.0591 97.441 24.1913 97.0533 23.3235C96.6442 22.4203 96.2337 21.5112 95.796 20.6123C95.3392 19.6722 94.9405 18.7024 94.5182 17.7456C94.4088 17.4976 94.3038 17.2481 94.1973 16.9993C94.021 17.0774 94.1121 17.2315 94.1106 17.345C94.0923 18.6467 94.1261 19.9441 94.0886 21.2436L94.0622 25.4677C94.03 25.5473 94.0194 25.6338 94.0313 25.7187C94.0313 27.5907 94.0313 29.463 94.0313 31.3356C94.0313 31.4195 94.0137 31.507 94.0658 31.5844C94.0737 31.997 94.0813 32.4097 94.0886 32.8224C94.1429 33.0141 94.0563 33.2209 94.1407 33.4125Z" fill="white"/>
<path d="M46.1071 23.2787L46.5478 23.2953C46.7681 23.3865 47.0016 23.2852 47.2219 23.3532L48.0371 23.3684C48.5856 23.4479 49.1386 23.3973 49.6887 23.4002C50.141 23.4002 50.5956 23.4414 51.0473 23.3742L51.767 23.3517C51.941 23.2932 52.1297 23.377 52.3023 23.2989C52.4737 23.3053 52.6453 23.3022 52.8164 23.2895C53.0088 23.2664 53.0426 23.3713 53.0543 23.5152C53.0984 23.6381 53.0345 23.7748 53.1035 23.8948C53.1123 24.0612 53.1204 24.2282 53.1285 24.3946C53.1821 24.6115 53.0962 24.8436 53.1799 25.0613C53.1799 25.7888 53.1799 26.5166 53.1799 27.2446C53.0888 27.4847 53.1902 27.74 53.1211 27.9815L53.1057 28.4154C53.0198 28.555 53.1094 28.717 53.047 28.8587L53.0315 29.148C52.95 29.2623 53.0315 29.4011 52.9721 29.5183C52.7518 30.7202 52.5505 31.9235 52.2193 33.1038C51.3942 36.0397 50.056 38.8116 48.2647 41.2952C48.2016 41.3827 48.1604 41.4868 48.0092 41.544L39.2393 21.9141C39.8363 22.0905 40.3849 22.2626 40.9393 22.4145C42.1958 22.7571 43.4768 23.0056 44.7713 23.1579C45.0628 23.2033 45.3575 23.2253 45.6526 23.2237C45.7965 23.3033 45.9603 23.2208 46.1071 23.2787Z" fill="white"/>
<path d="M124.9 34.4042C124.9 33.4525 124.9 32.5015 124.906 31.5505C124.906 31.4456 124.798 31.2706 125.038 31.2403C125.249 31.2135 125.278 31.3654 125.331 31.4977C125.974 33.148 126.879 34.6385 128.231 35.8165C130.151 37.4892 133.329 38.0056 135.68 36.6164C137.99 35.2517 138.618 31.988 136.929 30.0731C136.224 29.2725 135.274 28.8437 134.294 28.4907C132.692 27.9122 131.068 27.3944 129.475 26.7985C127.286 25.9806 125.748 24.4843 125.22 22.2222C124.535 19.2775 125.815 16.2372 129.054 14.9833C131.923 13.8717 134.819 13.9831 137.634 15.287C137.856 15.3943 138.066 15.5232 138.262 15.6717C138.452 15.8113 138.585 15.7925 138.721 15.6088C138.911 15.3528 139.129 15.1163 139.309 14.8516C139.42 14.6839 139.549 14.6058 139.734 14.6542C139.919 14.7027 139.832 14.8798 139.832 14.9927C139.84 16.7384 139.84 18.4839 139.832 20.2292C139.832 20.3449 139.951 20.5315 139.709 20.5835C139.481 20.6327 139.421 20.4917 139.352 20.3217C138.75 18.8349 137.947 17.4753 136.742 16.3732C134.919 14.7056 132.392 14.3107 130.274 15.3824C128.919 16.0687 128.218 17.2049 128.04 18.6693C127.947 19.3488 128.007 20.0403 128.217 20.6942C128.514 21.5837 129.15 22.1998 129.906 22.7191C131.105 23.5341 132.489 23.9289 133.844 24.386C134.955 24.7613 136.091 25.0745 137.155 25.5698C139.027 26.442 140.405 27.7531 140.841 29.8236C141.58 33.3418 139.761 36.3726 136.232 37.3648C133.232 38.2081 130.233 38.114 127.299 36.9953C127.091 36.9211 126.894 36.8202 126.712 36.6952C126.389 36.4601 126.157 36.5267 125.939 36.8319C125.784 37.0488 125.596 37.2491 125.436 37.4654C125.345 37.589 125.238 37.6527 125.09 37.6151C124.93 37.5738 124.994 37.4321 124.993 37.3366C124.987 36.3611 124.993 35.3841 124.993 34.4092L124.9 34.4042Z" fill="white"/>
<path d="M62.4219 26.7277C62.4219 26.3421 62.4219 25.9564 62.4219 25.5707C62.5078 25.4051 62.4219 25.2228 62.4747 25.055C62.535 23.7475 62.911 22.5037 63.4148 21.3162C63.8745 20.2335 64.4995 19.2263 65.2683 18.3295C66.2964 17.1297 67.4935 16.165 68.9204 15.4932C70.274 14.8423 71.7339 14.4322 73.2326 14.2819C73.4279 14.2638 73.6211 14.2255 73.8157 14.1965C74.0125 14.1315 74.2247 14.2262 74.4194 14.1401H76.3375C76.5321 14.2255 76.7436 14.1329 76.9412 14.1951C78.6751 14.3961 80.3487 14.8156 81.9188 15.5807C82.3205 15.776 82.695 16.0262 83.0754 16.2627C83.201 16.3408 83.3134 16.3979 83.4353 16.2815C83.9053 15.8302 84.4024 15.4035 84.7638 14.8546C85.0105 14.8026 85.1794 14.799 85.1772 15.1439C85.164 17.3626 85.1706 19.5813 85.1691 21.7971C85.1691 21.8796 85.1941 21.97 85.1229 22.0401C84.6933 22.1435 84.6947 21.8449 84.5941 21.5578C84.2269 20.4983 83.7452 19.4815 83.0644 18.579C82.1024 17.304 80.9347 16.2511 79.466 15.5511C78.6541 15.1532 77.7791 14.8949 76.8788 14.7874C76.7605 14.7114 76.6195 14.7874 76.4984 14.7324C76.0516 14.6923 75.602 14.6923 75.1552 14.7324C75.0274 14.7845 74.8842 14.7216 74.7579 14.7845C73.4434 14.864 72.2794 15.3551 71.2087 16.0746C69.2361 17.4002 68.0369 19.2834 67.2636 21.4587C66.8355 22.6635 66.5248 23.8972 66.5145 25.1859C66.4286 25.4752 66.519 25.7789 66.4624 26.0725C66.4624 26.1709 66.4624 26.27 66.4587 26.3683C66.5219 26.667 66.4301 26.9743 66.5101 27.2723C66.5175 27.4104 66.5241 27.5486 66.5314 27.6867C66.5895 27.806 66.5109 27.9456 66.5887 28.0613C66.6548 29.2386 67.0102 30.3458 67.4428 31.432C67.9234 32.6486 68.6534 33.7547 69.5872 34.6812C70.7982 35.8817 72.2449 36.7061 73.9449 37.0612C74.4135 37.1581 74.8857 37.2536 75.3704 37.2131C75.7028 37.2662 76.0418 37.2662 76.3743 37.2131C77.7608 37.1914 79.0077 36.738 80.1849 36.0466C81.9886 34.9879 83.3427 33.5495 84.1829 31.6396C84.3965 31.1497 84.5685 30.6432 84.6969 30.1252C84.8372 30.0146 84.9855 30.0529 85.1375 30.1028L85.1331 32.2825C85.0597 32.9601 85.1229 33.6391 85.0994 34.3175C85.092 34.5475 85.1258 34.7789 85.0781 35.0074C85.0693 35.6279 85.0634 36.2484 85.0487 36.8681C85.0487 36.96 85.1221 37.1205 84.9437 37.1256C84.7968 37.1256 84.6066 37.216 84.5082 37.0308C84.3151 36.6649 83.975 36.4169 83.7437 36.0784C83.4933 35.7118 83.1966 35.68 82.8309 35.9172C81.4554 36.8088 79.911 37.2543 78.3181 37.5653C77.8907 37.6492 77.4531 37.6795 77.0198 37.7345C76.7951 37.796 76.5586 37.7056 76.3353 37.7873H74.7961C74.5758 37.7063 74.3364 37.7938 74.1116 37.7359L73.6784 37.7142C73.5572 37.6419 73.4155 37.7142 73.2921 37.6593C72.2264 37.55 71.1767 37.3224 70.1629 36.9809C68.8902 36.5666 67.6976 35.983 66.6533 35.16C65.1258 33.9639 63.9641 32.4813 63.248 30.6647C62.8926 29.7651 62.7046 28.8351 62.4997 27.9036C62.4586 27.7178 62.4828 27.5175 62.477 27.3251C62.4138 27.1277 62.5078 26.9201 62.4219 26.7277Z" fill="white"/>
</svg>
