<svg width="140" height="53" viewBox="0 0 140 53" fill="none" xmlns="http://www.w3.org/2000/svg">
<path d="M73.2701 17.1091V17.1133L73.2902 17.1217L73.2701 17.1091Z" fill="white" stroke="white" stroke-width="0.5"/>
<path d="M80.8294 4.22577C79.4175 3.74935 77.9483 3.49758 76.4715 3.34983C71.8129 2.88321 67.1747 3.25108 62.5628 3.89635C56.9952 4.68662 51.4971 5.90616 46.1175 7.54408C45.5529 7.71444 45.3162 7.56217 45.0252 7.11666C43.8855 5.37232 42.5052 3.84207 40.7639 2.6729C38.6834 1.27683 36.4355 0.570498 33.9351 1.27833C31.5681 1.94848 30.0536 3.63854 28.9666 5.73114C27.7176 8.13281 27.1575 10.7259 27.1959 13.4201C27.208 14.4001 26.8725 14.8584 25.9838 15.2526C23.1414 16.5269 20.373 17.9601 17.6918 19.5456C12.8801 22.3657 8.2532 25.4412 4.44868 29.5873C3.08728 31.0708 1.8857 32.6696 1.27058 34.6288C0.476055 37.1563 1.44622 38.9934 3.98433 39.699C6.41916 40.3774 8.89395 40.1452 11.3348 39.8128C15.5833 39.2331 19.7391 38.1951 23.8542 36.9973C26.2175 36.3091 28.5769 35.6088 30.9492 34.9107C31.0306 35.2122 31.0999 35.4557 31.1655 35.7037C33.3011 43.8653 38.4648 49.0237 46.5962 51.2656C47.6025 51.543 50.5831 51.938 52.5928 51.7767C62.4196 50.9889 71.5446 43.4847 72.018 32.3982C70.2714 35.2371 68.126 37.4488 65.104 38.6421C62.0819 39.8354 59.0214 39.8972 55.9534 38.8298C52.871 37.7556 50.5681 35.7693 48.982 32.791C51.4086 32.4729 53.4168 31.3497 55.3375 30.0418C57.9419 28.2688 60.2373 26.1672 60.4227 25.4036C55.5229 27.5617 54.2135 27.8912 52.4647 27.3522C52.7225 27.2595 52.9328 27.1826 53.1431 27.1087C56.7758 25.846 60.4137 24.594 63.968 23.1217C69.0804 21.0043 74.1814 18.8483 78.8099 15.7615C81.4158 14.0232 83.8703 12.1175 85.0131 9.02307V8.16145C84.4884 5.92864 82.8179 4.89742 80.8294 4.22577ZM27.9422 13.5068C28.145 10.1372 28.7465 6.90484 30.9974 4.21446C32.8571 1.99069 35.497 1.27456 38.2047 2.28845C41.0202 3.34455 42.9183 5.44771 44.5707 7.93531C43.4957 8.29865 42.4984 8.64013 41.4981 8.97256C37.1487 10.4178 32.8753 12.0826 28.6945 13.9606C28.1555 14.2011 27.8962 14.2674 27.9422 13.5068ZM31.9133 32.7661C31.7369 30.4097 31.8809 28.0698 32.6083 25.8197C32.8428 25.0952 33.7737 24.9859 34.4424 24.6889C37.9929 23.0305 41.7341 22.0362 45.7346 21.3827C45.0139 22.7237 44.4757 23.9796 44.1516 25.3146C44.1165 25.4844 44.0157 25.6335 43.8711 25.7292C42.1155 26.8946 40.7526 28.5183 39.0957 29.8036C37.6152 30.9502 36.0699 31.9776 34.2765 32.5799C33.6772 32.7684 33.0757 32.9493 32.4794 33.1475C32.1048 33.2727 31.9405 33.1317 31.9133 32.7661ZM46.0399 21.6254C46.0939 21.5232 46.1744 21.4374 46.2729 21.3769C46.3714 21.3164 46.4844 21.2835 46.6 21.2817C47.301 21.2651 48.0036 21.1309 48.8071 21.256C47.9998 22.6295 47.4503 24.0233 47.1721 25.5212C47.0877 25.9697 46.848 26.2493 46.3595 25.7865C45.871 25.3237 45.2288 25.2807 44.5202 25.4096C44.8014 23.9917 45.3554 22.7855 46.0399 21.6254ZM70.3128 36.0452C70.3257 36.4975 70.2375 36.8262 70.0196 37.1269C69.1203 40.1973 67.4144 42.7806 65.1597 45.0089C61.9937 48.135 58.1741 50.015 53.7635 50.5118C42.9899 51.7179 34.1416 44.3598 32.2736 34.9695L34.9874 35.3517C38.2145 35.4648 41.419 35.3457 44.5255 34.3454C44.9777 34.1999 45.0531 34.463 45.2001 34.7494C47.2136 38.6429 50.3261 41.2096 54.6168 42.1527C59.1887 43.1575 63.3265 42.124 66.9041 39.062C68.034 38.0918 69.1331 37.0893 70.3128 36.0452ZM50.3871 36.1794C52.3216 38.1918 54.8249 39.565 57.5616 40.115C60.2983 40.6649 63.1378 40.3654 65.6995 39.2565C65.8774 39.1811 66.056 39.1057 66.2339 39.0303C59.6863 44.5068 49.6967 42.5002 45.7014 35.0178C45.3426 34.3454 45.2627 33.927 46.1024 33.6179C46.459 33.486 46.7613 33.1656 47.0455 32.8852C47.6025 32.3402 47.8611 32.3575 48.2297 33.0842C48.7884 34.219 49.5158 35.2626 50.3871 36.1794ZM56.08 28.0382C56.2096 28.0161 56.3406 28.003 56.472 27.999C56.1245 28.6985 55.4573 28.9209 54.9425 29.288C53.3979 30.3878 51.7568 31.3045 49.8919 31.7967C49.0469 32.0228 48.2953 31.9399 47.5912 31.4906C47.2407 31.2645 47.0266 31.2411 46.8578 31.6414C46.4055 32.7088 45.4255 33.1415 44.4546 33.4506C41.3681 34.4386 38.1068 34.7588 34.8871 34.3898C34.1808 34.3084 33.473 34.2142 32.6309 34.135C33.7971 33.587 34.9633 33.3571 36.0118 32.8151C37.8489 31.8769 39.5414 30.6794 41.0375 29.2593C41.9466 28.3924 42.901 27.5678 43.8772 26.7755C44.8127 26.0164 45.4368 26.0481 46.2434 26.9376C46.7711 27.5233 47.0394 27.3145 47.3952 26.7966C47.9712 25.9546 48.2546 25.8792 48.881 26.4649C50.9781 28.4173 53.4145 28.7204 56.08 28.0359V28.0382ZM83.0908 10.8187C82.0121 12.3105 80.5369 13.3673 79.033 14.3797C77.4839 15.4222 75.8481 16.3193 74.2086 17.2141C73.8219 17.4251 73.2407 17.7824 72.8615 17.9958C68.9786 20.1758 64.8861 21.8953 60.7409 23.4987C57.801 24.6294 54.8264 25.6636 51.8413 26.6685C51.1832 26.8901 50.7105 26.8117 50.1881 26.4107C49.6461 25.9923 49.1675 25.4714 48.5064 25.2279C48.1385 25.0922 48.2177 24.802 48.2983 24.5902C48.4491 24.1982 48.2878 23.6336 48.9263 23.4889C49.7947 23.2921 50.6367 23.0034 51.398 22.5292C51.7644 22.3031 52.1933 22.04 52.1255 21.553C52.0576 21.0661 51.5812 20.9063 51.1696 20.7826C49.3378 20.2331 47.4676 20.3243 45.62 20.6138C40.6817 21.3872 36.0261 23.0313 31.5922 25.3161C30.8263 25.7111 30.0846 26.1491 29.4762 26.7763C29.2538 27.0024 28.9938 27.2384 29.1166 27.5904C29.2395 27.9424 29.5855 27.9711 29.9066 27.9748C30.377 27.9801 30.8474 27.9748 31.317 27.9748C31.2658 28.4565 31.2062 28.9382 31.1663 29.4214C31.063 30.5359 31.063 31.6576 31.1663 32.7721C31.2168 33.2742 31.0849 33.5026 30.5331 33.5094C29.936 33.5169 29.3398 33.6277 28.7156 33.6956C28.9418 34.0657 29.4159 33.9571 29.6895 34.2911C27.7816 34.9982 25.8292 35.4972 23.8904 36.0369C21.4903 36.7018 19.0788 37.3275 16.6636 37.9366C16.4058 38.0014 15.0971 38.3135 14.7956 38.3692C11.7193 38.967 8.63765 39.5422 5.4784 39.1819C4.58738 39.0808 3.72501 38.8713 2.96743 38.3587C2.42543 37.9916 2.03797 37.5174 1.92113 36.7938C2.71791 36.6543 3.51093 36.8397 4.29339 36.6679C6.00079 36.291 7.08931 35.2982 7.58306 33.6353C7.65844 33.3888 7.73382 33.143 7.80091 32.8943C8.39492 30.6456 8.77183 30.3569 11.0785 30.3923C11.5097 30.3984 11.9416 30.4165 12.3721 30.4051C13.6769 30.3705 14.626 29.7697 15.1228 28.5575C15.4477 27.7645 15.6851 26.9361 15.9798 26.1302C16.7781 23.9479 17.7619 23.3833 19.9902 23.8688C21.142 24.1198 22.275 24.407 23.4773 24.1967C24.0012 24.1047 24.985 23.3208 25.1712 23.1052C26.0637 22.0498 26.4451 20.7646 26.8703 19.4929C27.0874 18.8431 27.3535 18.2114 27.7748 17.6573C28.2882 16.9789 28.9418 16.7429 29.7348 17.11C30.4328 17.4342 31.1015 17.8186 31.795 18.1533C32.5201 18.5039 33.2649 18.7715 34.1017 18.6358C34.4107 18.586 34.716 18.534 34.9309 18.4224C36.8048 17.1884 37.8873 15.5202 38.9261 13.5852C39.0731 13.3115 39.2766 13.0696 39.4538 12.8125C40.479 11.1541 41.8524 10.7146 43.3209 11.5785C43.7814 11.8635 44.2481 12.1371 44.6996 12.4349C45.7278 13.1133 46.7711 13.1668 47.8604 12.5803C48.9089 12.0157 49.7607 11.2091 50.611 10.3988C51.3573 9.68718 52.0863 8.95899 52.9366 8.36348C53.8743 7.70766 54.8611 7.57951 55.8244 8.22327C58.3791 9.92916 60.3187 9.20776 62.3073 7.37371C62.9744 6.7586 63.6016 6.07262 64.4881 5.74396C65.9648 5.03612 66.947 5.37232 67.6172 6.80458C68.1283 7.89988 68.858 8.23684 70.0792 7.92023C70.9197 7.70464 71.6758 7.28326 72.4522 6.91539C73.1547 6.5822 73.8633 6.26711 74.6383 6.15177C75.7539 5.98593 76.5432 6.52868 76.7964 7.6074C77.1884 9.27183 77.4884 9.50928 79.2343 9.35701C80.1766 9.27409 81.109 9.08262 82.0491 8.96955C82.6521 8.89417 83.4225 8.78185 83.721 9.32535C83.9954 9.82739 83.4187 10.3686 83.0908 10.8187ZM79.5532 8.9213C79.2388 8.94995 78.926 9.00272 78.6116 9.01553C77.8405 9.04719 77.3897 8.714 77.2389 7.91571C76.8869 6.04473 75.8873 5.43866 74.0262 5.89397C73.1811 6.10051 72.4175 6.49702 71.6441 6.87393C71.0237 7.17546 70.401 7.47699 69.7196 7.60589C68.959 7.74912 68.3944 7.51769 68.028 6.77217C67.0955 4.87631 65.5171 4.45945 63.7607 5.67159C63.0068 6.19173 62.3427 6.83775 61.6424 7.43251C59.7209 9.06302 58.4266 9.23339 56.2421 7.98129C54.8279 7.17018 53.56 7.28627 52.3531 8.3077C51.5857 8.95598 50.856 9.64874 50.1188 10.3317C49.5074 10.8986 48.8886 11.4534 48.2018 11.9313C47.007 12.7605 45.822 12.8502 44.634 11.9238C44.5436 11.8529 44.4448 11.7934 44.3498 11.7285C41.9994 10.1395 40.4254 10.4681 38.8944 12.8811C38.5409 13.4382 38.2273 14.0194 37.8866 14.5832C37.4102 15.3702 36.8998 16.1323 36.2478 16.7912C34.4951 18.5611 33.5785 18.6931 31.3766 17.4854C31.201 17.389 31.0268 17.2887 30.8489 17.1922C28.7865 16.0675 27.7462 16.4195 26.8107 18.6086C26.4406 19.4763 26.1896 20.3944 25.8225 21.2628C24.8425 23.5725 23.555 24.2284 21.1088 23.7105C20.6319 23.61 20.1545 23.5095 19.6766 23.409C17.8674 23.032 16.7917 23.5665 15.9459 25.2249C15.5781 25.9456 15.3753 26.7212 15.1295 27.4864C14.4669 29.539 13.6656 30.1074 11.5301 30.0373C11.1848 30.026 10.8403 30.0086 10.4951 30.0132C8.66705 30.0395 7.98258 30.5913 7.52954 32.3643C7.38782 32.9184 7.25138 33.48 7.03503 34.0069C6.26538 35.8801 4.17052 36.8978 2.21738 36.4101C1.73644 36.2902 1.83519 35.9751 1.88796 35.6781C2.08094 34.5919 2.51514 33.5983 3.10387 32.6689C4.59718 30.3079 6.58651 28.403 8.73112 26.6541C14.286 22.1229 20.508 18.6825 26.9848 15.6831C37.2865 10.9091 47.9629 7.26969 59.1616 5.29694C64.5197 4.34939 69.9141 3.73201 75.3725 4.20315C77.5548 4.39161 79.71 4.73082 81.6767 5.77637C82.8338 6.39224 83.7293 7.23878 83.9622 8.72833C82.4041 8.19462 80.9922 8.78863 79.5554 8.9213H79.5532Z" fill="white" stroke="white" stroke-width="0.5"/>
<path d="M15.5685 38.7813C15.5519 38.6653 15.2044 36.2478 16.8002 32.5729C17.7349 30.4207 19.1574 28.4035 21.0269 26.5778C23.3577 24.3005 26.3948 22.3157 30.0538 20.6784C43.8796 14.4933 50.1898 13.6581 58.2376 13.0912C64.8765 12.6231 69.7198 14.4096 69.771 14.4277L69.7854 14.4338C69.9407 14.5091 73.5914 16.2557 73.865 17.9767L73.4934 18.0355C73.2552 16.5414 69.8133 14.8642 69.6316 14.7767C69.4183 14.7014 64.7001 13.0121 58.267 13.4651C50.2592 14.0297 43.9799 14.8604 30.2106 21.0214C22.0219 24.6857 18.5867 29.4069 17.1462 32.7229C15.5918 36.3005 15.9401 38.6999 15.9401 38.7271L15.5685 38.7813Z" fill="white" stroke="white" stroke-width="0.5"/>
<path d="M82.4003 31.9059L78.8183 24.1061V30.2994C78.8183 30.8691 78.8798 31.2246 79.0029 31.3658C79.1715 31.5573 79.4381 31.653 79.8027 31.653H80.1308V31.9059H76.9042V31.653H77.2324C77.6243 31.653 77.9023 31.5345 78.0664 31.2975C78.1666 31.1517 78.2167 30.819 78.2167 30.2994V24.2428C78.2167 23.8326 78.1712 23.5364 78.08 23.3541C78.0162 23.222 77.8977 23.1126 77.7246 23.026C77.5559 22.9349 77.2825 22.8893 76.9042 22.8893V22.6364H79.5292L82.8925 29.8893L86.2011 22.6364H88.8261V22.8893H88.5048C88.1083 22.8893 87.8281 23.0078 87.664 23.2448C87.5637 23.3906 87.5136 23.7233 87.5136 24.2428V30.2994C87.5136 30.8691 87.5774 31.2246 87.705 31.3658C87.8736 31.5573 88.1402 31.653 88.5048 31.653H88.8261V31.9059H84.8886V31.653H85.2167C85.6132 31.653 85.8912 31.5345 86.0507 31.2975C86.151 31.1517 86.2011 30.819 86.2011 30.2994V24.1061L82.6259 31.9059H82.4003ZM90.6171 28.0026C90.6126 28.9323 90.8382 29.6614 91.2939 30.1901C91.7496 30.7187 92.2851 30.983 92.9003 30.983C93.3105 30.983 93.666 30.8714 93.9667 30.6481C94.2721 30.4202 94.5273 30.0328 94.7324 29.486L94.9443 29.6227C94.8486 30.247 94.5706 30.8167 94.1103 31.3317C93.65 31.8421 93.0735 32.0973 92.3808 32.0973C91.6289 32.0973 90.984 31.8056 90.4462 31.2223C89.913 30.6344 89.6464 29.846 89.6464 28.8571C89.6464 27.7861 89.9199 26.9521 90.4667 26.3551C91.0182 25.7535 91.7086 25.4528 92.538 25.4528C93.2399 25.4528 93.8164 25.6852 94.2675 26.15C94.7187 26.6103 94.9443 27.2278 94.9443 28.0026H90.6171ZM90.6171 27.6061H93.5156C93.4928 27.205 93.4449 26.9225 93.372 26.7584C93.2581 26.5032 93.0872 26.3027 92.8593 26.1569C92.636 26.011 92.4013 25.9381 92.1552 25.9381C91.777 25.9381 91.4374 26.0862 91.1367 26.3824C90.8404 26.6741 90.6673 27.082 90.6171 27.6061ZM97.6035 23.5865V25.6442H99.0664V26.1227H97.6035V30.1832C97.6035 30.5888 97.6604 30.8623 97.7744 31.0035C97.8929 31.1448 98.0432 31.2155 98.2255 31.2155C98.3759 31.2155 98.5218 31.1699 98.663 31.0787C98.8043 30.983 98.9137 30.844 98.9912 30.6617H99.2578C99.0983 31.1084 98.8727 31.4456 98.581 31.6735C98.2893 31.8968 97.9886 32.0084 97.6787 32.0084C97.469 32.0084 97.2639 31.9515 97.0634 31.8375C96.8629 31.719 96.7148 31.5527 96.6191 31.3385C96.5234 31.1198 96.4755 30.7848 96.4755 30.3336V26.1227H95.4843V25.8971C95.735 25.7968 95.9902 25.6282 96.2499 25.3912C96.5143 25.1497 96.749 24.8649 96.954 24.5367C97.0589 24.3636 97.2047 24.0468 97.3915 23.5865H97.6035ZM103.229 31.0035C102.587 31.5003 102.184 31.7874 102.019 31.8649C101.773 31.9788 101.511 32.0358 101.233 32.0358C100.8 32.0358 100.443 31.8877 100.16 31.5914C99.8821 31.2952 99.7431 30.9056 99.7431 30.4225C99.7431 30.1171 99.8115 29.8528 99.9482 29.6295C100.135 29.3196 100.459 29.028 100.919 28.7545C101.384 28.4811 102.154 28.1484 103.229 27.7565V27.5104C103.229 26.886 103.129 26.4576 102.929 26.2252C102.733 25.9928 102.446 25.8766 102.067 25.8766C101.78 25.8766 101.552 25.9541 101.384 26.109C101.211 26.264 101.124 26.4417 101.124 26.6422L101.138 27.0387C101.138 27.2483 101.083 27.4101 100.974 27.524C100.869 27.638 100.73 27.6949 100.557 27.6949C100.388 27.6949 100.249 27.6357 100.14 27.5172C100.035 27.3987 99.9824 27.2369 99.9824 27.0319C99.9824 26.6399 100.183 26.2799 100.584 25.9518C100.985 25.6237 101.548 25.4596 102.272 25.4596C102.828 25.4596 103.284 25.553 103.64 25.7399C103.908 25.8811 104.107 26.1022 104.234 26.403C104.316 26.5989 104.357 27 104.357 27.6061V29.7321C104.357 30.3291 104.369 30.6959 104.392 30.8326C104.414 30.9648 104.451 31.0537 104.501 31.0992C104.556 31.1448 104.617 31.1676 104.685 31.1676C104.758 31.1676 104.822 31.1517 104.877 31.1198C104.973 31.0605 105.157 30.8942 105.431 30.6207V31.0035C104.92 31.6871 104.433 32.0289 103.968 32.0289C103.744 32.0289 103.567 31.9515 103.435 31.7965C103.302 31.6416 103.234 31.3772 103.229 31.0035ZM103.229 30.5592V28.1735C102.541 28.4469 102.097 28.6406 101.896 28.7545C101.536 28.955 101.279 29.1647 101.124 29.3834C100.969 29.6022 100.892 29.8414 100.892 30.1012C100.892 30.4293 100.99 30.7028 101.185 30.9215C101.381 31.1357 101.607 31.2428 101.862 31.2428C102.209 31.2428 102.664 31.0149 103.229 30.5592ZM113.894 22.4244L114.105 25.5758H113.894C113.611 24.6324 113.208 23.9534 112.684 23.5387C112.159 23.124 111.531 22.9166 110.797 22.9166C110.182 22.9166 109.626 23.0739 109.129 23.3883C108.632 23.6982 108.24 24.1949 107.953 24.8785C107.671 25.5621 107.529 26.4121 107.529 27.4283C107.529 28.2669 107.664 28.9938 107.933 29.609C108.201 30.2242 108.605 30.6959 109.143 31.024C109.685 31.3522 110.302 31.5162 110.995 31.5162C111.597 31.5162 112.128 31.3886 112.588 31.1334C113.048 30.8737 113.554 30.361 114.105 29.5953L114.317 29.7321C113.852 30.5569 113.31 31.1608 112.69 31.5436C112.071 31.9264 111.335 32.1178 110.482 32.1178C108.947 32.1178 107.757 31.5481 106.914 30.4088C106.285 29.5612 105.971 28.5631 105.971 27.4147C105.971 26.4895 106.178 25.6396 106.593 24.8649C107.007 24.0901 107.577 23.4908 108.302 23.067C109.031 22.6386 109.826 22.4244 110.687 22.4244C111.357 22.4244 112.018 22.5885 112.67 22.9166C112.861 23.0169 112.998 23.067 113.08 23.067C113.203 23.067 113.31 23.0237 113.401 22.9371C113.52 22.8141 113.604 22.6432 113.654 22.4244H113.894ZM118.788 31.0035C118.145 31.5003 117.742 31.7874 117.578 31.8649C117.332 31.9788 117.07 32.0358 116.792 32.0358C116.359 32.0358 116.001 31.8877 115.719 31.5914C115.441 31.2952 115.302 30.9056 115.302 30.4225C115.302 30.1171 115.37 29.8528 115.507 29.6295C115.694 29.3196 116.017 29.028 116.477 28.7545C116.942 28.4811 117.713 28.1484 118.788 27.7565V27.5104C118.788 26.886 118.688 26.4576 118.487 26.2252C118.291 25.9928 118.004 25.8766 117.626 25.8766C117.339 25.8766 117.111 25.9541 116.942 26.109C116.769 26.264 116.683 26.4417 116.683 26.6422L116.696 27.0387C116.696 27.2483 116.642 27.4101 116.532 27.524C116.427 27.638 116.288 27.6949 116.115 27.6949C115.947 27.6949 115.808 27.6357 115.698 27.5172C115.593 27.3987 115.541 27.2369 115.541 27.0319C115.541 26.6399 115.741 26.2799 116.143 25.9518C116.544 25.6237 117.106 25.4596 117.831 25.4596C118.387 25.4596 118.843 25.553 119.198 25.7399C119.467 25.8811 119.665 26.1022 119.793 26.403C119.875 26.5989 119.916 27 119.916 27.6061V29.7321C119.916 30.3291 119.927 30.6959 119.95 30.8326C119.973 30.9648 120.009 31.0537 120.06 31.0992C120.114 31.1448 120.176 31.1676 120.244 31.1676C120.317 31.1676 120.381 31.1517 120.435 31.1198C120.531 31.0605 120.716 30.8942 120.989 30.6207V31.0035C120.479 31.6871 119.991 32.0289 119.526 32.0289C119.303 32.0289 119.125 31.9515 118.993 31.7965C118.861 31.6416 118.793 31.3772 118.788 31.0035ZM118.788 30.5592V28.1735C118.1 28.4469 117.656 28.6406 117.455 28.7545C117.095 28.955 116.838 29.1647 116.683 29.3834C116.528 29.6022 116.45 29.8414 116.45 30.1012C116.45 30.4293 116.548 30.7028 116.744 30.9215C116.94 31.1357 117.166 31.2428 117.421 31.2428C117.767 31.2428 118.223 31.0149 118.788 30.5592ZM123.293 25.4596V26.8678C123.817 25.929 124.355 25.4596 124.906 25.4596C125.157 25.4596 125.364 25.5371 125.528 25.692C125.692 25.8424 125.774 26.0179 125.774 26.2184C125.774 26.3961 125.715 26.5465 125.597 26.6696C125.478 26.7926 125.337 26.8541 125.173 26.8541C125.013 26.8541 124.833 26.7767 124.633 26.6217C124.437 26.4622 124.291 26.3824 124.195 26.3824C124.113 26.3824 124.024 26.428 123.929 26.5192C123.724 26.706 123.512 27.0136 123.293 27.442V30.443C123.293 30.7893 123.336 31.0514 123.423 31.2291C123.482 31.3522 123.587 31.4547 123.737 31.5367C123.888 31.6188 124.104 31.6598 124.387 31.6598V31.9059H121.181V31.6598C121.5 31.6598 121.737 31.6097 121.892 31.5094C122.005 31.4365 122.085 31.3203 122.131 31.1608C122.154 31.0833 122.165 30.8623 122.165 30.4977V28.0709C122.165 27.3418 122.149 26.9088 122.117 26.7721C122.09 26.6308 122.035 26.5283 121.953 26.4645C121.876 26.4007 121.778 26.3688 121.659 26.3688C121.518 26.3688 121.358 26.403 121.181 26.4713L121.112 26.2252L123.006 25.4596H123.293ZM127.941 23.5865V25.6442H129.404V26.1227H127.941V30.1832C127.941 30.5888 127.998 30.8623 128.112 31.0035C128.231 31.1448 128.381 31.2155 128.563 31.2155C128.714 31.2155 128.86 31.1699 129.001 31.0787C129.142 30.983 129.252 30.844 129.329 30.6617H129.596C129.436 31.1084 129.211 31.4456 128.919 31.6735C128.627 31.8968 128.326 32.0084 128.017 32.0084C127.807 32.0084 127.602 31.9515 127.401 31.8375C127.201 31.719 127.053 31.5527 126.957 31.3385C126.861 31.1198 126.813 30.7848 126.813 30.3336V26.1227H125.822V25.8971C126.073 25.7968 126.328 25.6282 126.588 25.3912C126.852 25.1497 127.087 24.8649 127.292 24.5367C127.397 24.3636 127.543 24.0468 127.729 23.5865H127.941ZM131.072 28.0026C131.068 28.9323 131.293 29.6614 131.749 30.1901C132.205 30.7187 132.74 30.983 133.355 30.983C133.766 30.983 134.121 30.8714 134.422 30.6481C134.727 30.4202 134.982 30.0328 135.187 29.486L135.399 29.6227C135.304 30.247 135.026 30.8167 134.565 31.3317C134.105 31.8421 133.529 32.0973 132.836 32.0973C132.084 32.0973 131.439 31.8056 130.901 31.2223C130.368 30.6344 130.102 29.846 130.102 28.8571C130.102 27.7861 130.375 26.9521 130.922 26.3551C131.473 25.7535 132.164 25.4528 132.993 25.4528C133.695 25.4528 134.271 25.6852 134.723 26.15C135.174 26.6103 135.399 27.2278 135.399 28.0026H131.072ZM131.072 27.6061H133.971C133.948 27.205 133.9 26.9225 133.827 26.7584C133.713 26.5032 133.542 26.3027 133.314 26.1569C133.091 26.011 132.856 25.9381 132.61 25.9381C132.232 25.9381 131.893 26.0862 131.592 26.3824C131.296 26.6741 131.122 27.082 131.072 27.6061ZM138.394 22.1852V30.4908C138.394 30.8828 138.421 31.1425 138.476 31.2701C138.535 31.3977 138.624 31.4957 138.742 31.5641C138.861 31.6279 139.082 31.6598 139.405 31.6598V31.9059H136.336V31.6598C136.623 31.6598 136.819 31.6302 136.924 31.5709C137.029 31.5117 137.111 31.4137 137.17 31.277C137.229 31.1403 137.259 30.8782 137.259 30.4908V24.8033C137.259 24.097 137.243 23.664 137.211 23.5045C137.179 23.3405 137.127 23.2288 137.054 23.1696C136.985 23.1103 136.896 23.0807 136.787 23.0807C136.669 23.0807 136.518 23.1171 136.336 23.1901L136.22 22.9508L138.086 22.1852H138.394Z" fill="white"/>
</svg>
