<svg width="30" height="30" viewBox="0 0 30 30" fill="none" xmlns="http://www.w3.org/2000/svg">
<path d="M15 30C23.2843 30 30 23.2843 30 15C30 6.71573 23.2843 0 15 0C6.71573 0 0 6.71573 0 15C0 23.2843 6.71573 30 15 30Z" fill="#E6E6E6"/>
<path d="M14.999 2.68414L14.834 3.24547V19.5326L14.999 19.6977L22.5591 15.2289L14.999 2.68414Z" fill="#343434"/>
<path d="M14.9982 2.68414L7.4375 15.2283L14.9976 19.6971V11.7919V2.68414H14.9982Z" fill="#8C8C8C"/>
<path d="M14.9975 21.1286L14.9043 21.2419V27.0438L14.9975 27.3159L22.5622 16.6621L14.9975 21.1286Z" fill="#3C3C3B"/>
<path d="M14.9982 27.3153V21.1286L7.4375 16.6616L14.9982 27.3153Z" fill="#8C8C8C"/>
<path d="M14.998 19.6971L22.5581 15.2283L14.998 11.7919V19.6971Z" fill="#141414"/>
<path d="M7.4375 15.2283L14.9976 19.6971V11.7919L7.4375 15.2283Z" fill="#393939"/>
</svg>
