<svg width="30" height="30" viewBox="0 0 30 30" fill="none" xmlns="http://www.w3.org/2000/svg">
<path d="M8.24153 30C15.9716 30 15.9716 29.8852 17.2825 29.4979C18.9953 28.9916 12.4461 24.477 8.24153 24.477C4.03699 24.477 0.62793 25.7133 0.62793 27.2385C0.62793 28.7637 4.03699 30 8.24153 30Z" fill="black"/>
<path d="M25.7974 6.5168L26.1528 6.89824L25.8421 7.3166C15.7603 20.8916 9.9524 27.0381 7.48827 26.2137C5.98732 25.7115 4.48226 24.2016 2.9766 22.009C2.44765 21.2385 1.95047 20.4264 1.4986 19.6189C1.19794 19.0811 0.943168 18.5906 0.810784 18.3141C0.641919 17.9619 0.570726 17.7445 0.514242 17.4592C0.510711 17.4416 0.510711 17.4416 0.507769 17.4252C0.484234 17.3039 0.475997 17.2658 0.458346 17.1996C0.155332 16.0611 0 14.8816 0 13.6822C0 6.12539 6.15089 0 13.7392 0C16.1162 0 18.4074 0.602344 20.4373 1.7332L20.4896 1.76602C22.1518 2.91855 23.9199 4.50234 25.7974 6.5168ZM19.7948 2.81426C17.9579 1.79707 15.8885 1.25566 13.7386 1.25566C6.84694 1.25566 1.2603 6.81914 1.2603 13.6822C1.2603 14.7727 1.40151 15.8443 1.67687 16.8779C1.70394 16.9799 1.7163 17.0379 1.74513 17.1861C1.74807 17.202 1.74807 17.202 1.75101 17.2166C1.78749 17.4006 1.82573 17.5178 1.9487 17.7744C2.06932 18.0264 2.31173 18.4934 2.60004 19.0084C3.03426 19.7848 3.51143 20.5641 4.01744 21.3012C5.37718 23.2822 6.72633 24.6352 7.88955 25.0248C9.4411 25.5439 15.2837 19.3852 24.5159 6.99199C22.8396 5.22891 21.2651 3.83672 19.7948 2.81426Z" fill="black"/>
<path d="M19.7933 2.81427C17.9563 1.79708 15.887 1.25568 13.7371 1.25568C6.84543 1.25568 1.25879 6.81915 1.25879 13.6822C1.25879 14.7727 1.4 15.8443 1.67536 16.8779C1.70243 16.9799 1.71478 17.0379 1.74361 17.1861C1.74655 17.202 1.74655 17.202 1.7495 17.2166C1.78597 17.4006 1.82422 17.5178 1.94719 17.7744C2.06781 18.0264 2.31022 18.4934 2.59852 19.0084C3.03275 19.7848 3.50992 20.5641 4.01592 21.3012C5.37566 23.2822 6.72481 24.6352 7.88803 25.0248C9.43958 25.544 15.2822 19.3852 24.5144 6.992C22.8381 5.22892 21.2636 3.83673 19.7933 2.81427Z" fill="#EC1C79"/>
<path d="M16.2617 29.8746C8.67394 29.8746 2.52246 23.7492 2.52246 16.1924C2.52246 8.63555 8.67394 2.51074 16.2617 2.51074C23.8494 2.51074 30.0008 8.63613 30.0008 16.193C30.0008 23.7498 23.8494 29.8746 16.2617 29.8746ZM16.2617 28.6195C23.1533 28.6195 28.74 23.0561 28.74 16.193C28.74 9.32988 23.1533 3.76582 16.2617 3.76582C9.36999 3.76582 3.78335 9.3293 3.78335 16.1924C3.78335 23.0555 9.36999 28.6195 16.2617 28.6195Z" fill="black"/>
<path d="M16.2596 28.6195C23.1512 28.6195 28.7379 23.056 28.7379 16.193C28.7379 9.32987 23.1512 3.76581 16.2596 3.76581C9.36789 3.76581 3.78125 9.32929 3.78125 16.1924C3.78125 23.0555 9.36789 28.6195 16.2596 28.6195Z" fill="white"/>
<path fill-rule="evenodd" clip-rule="evenodd" d="M6.92697 18.7383L5.27539 13.7824H6.72221L7.58359 16.6295L8.53676 13.7684H9.71528L10.6685 16.6295L11.5298 13.7824H12.9484L11.2968 18.7383H10.1042L9.10867 15.9053L8.12019 18.7383H6.92697ZM13.4915 18.7031V13.7824H17.4654V14.942H14.8465V15.6873H17.2183V16.7625H14.8465V17.543H17.5007V18.7026H13.4915V18.7031ZM19.407 18.7031V14.9777H17.9249V13.783H22.2589V14.9777H20.7768V18.7031H19.407ZM22.8585 18.7031V13.7824H24.2276V15.624H25.9851V13.7824H27.3542V18.7031H25.9851V16.8334H24.2276V18.7031H22.8585Z" fill="black"/>
<path d="M0.822176 12.3023C0.473269 12.1289 0.332058 11.7064 0.506218 11.359C0.680378 11.0115 1.1046 10.8709 1.45351 11.0443L3.47046 12.0486C3.81937 12.2221 3.96058 12.6445 3.78642 12.992C3.61226 13.3394 3.18804 13.4801 2.83913 13.3066L0.822176 12.3023Z" fill="black"/>
<path d="M0.587097 15.6322C0.232894 15.4693 0.0787389 15.0521 0.241719 14.6994C0.405288 14.3467 0.824213 14.1932 1.17842 14.3555L3.19537 15.2824C3.54957 15.4453 3.70373 15.8625 3.54075 16.2152C3.37777 16.568 2.95826 16.7215 2.60405 16.5592L0.587097 15.6322Z" fill="black"/>
</svg>
