<svg width="30" height="30" viewBox="0 0 30 30" fill="none" xmlns="http://www.w3.org/2000/svg">
<path d="M15.0003 0C23.2845 0 30 6.71608 30 15.0003C30 23.2845 23.2845 30 15.0003 30C6.71608 30 0 23.2839 0 15.0003C0 6.71666 6.71608 0 15.0003 0Z" fill="#8F5AE8"/>
<path d="M20.517 11.5456C20.3216 11.4393 20.1035 11.3836 19.8819 11.3836C19.6604 11.3836 19.4423 11.4393 19.2468 11.5456L16.3848 13.2711L14.3849 14.404L11.5241 16.1312C11.3287 16.2376 11.1106 16.2933 10.889 16.2933C10.6675 16.2933 10.4494 16.2376 10.2539 16.1312L7.97827 14.7805C7.79147 14.6704 7.63525 14.5136 7.52433 14.3249C7.41342 14.1363 7.35147 13.9219 7.34433 13.702V11.0064C7.33977 10.7839 7.39683 10.5645 7.50896 10.3736C7.62109 10.1826 7.78375 10.0277 7.97827 9.92674L10.2528 8.63162C10.4482 8.52524 10.6663 8.46959 10.8879 8.46959C11.1094 8.46959 11.3275 8.52524 11.5229 8.63162L13.7974 9.92674C13.9846 10.0366 14.1412 10.1934 14.2523 10.3822C14.3635 10.5711 14.4255 10.7857 14.4325 11.0058V12.7324L16.3848 11.5486V9.87347C16.3903 9.65222 16.3349 9.43383 16.2248 9.24309C16.1146 9.05236 15.9543 8.89691 15.7619 8.7944L11.5752 6.31603C11.3798 6.20955 11.1617 6.15385 10.9401 6.15385C10.7185 6.15385 10.5004 6.20955 10.305 6.31603L6.07299 8.79736C5.8617 8.88076 5.68154 9.02989 5.55806 9.22358C5.43458 9.41727 5.37405 9.64569 5.38506 9.87643V14.8929C5.3822 15.1143 5.44024 15.332 5.55261 15.5213C5.66497 15.7107 5.82715 15.8642 6.02074 15.9643L10.2528 18.4504C10.4483 18.557 10.6667 18.6127 10.8884 18.6127C11.1102 18.6127 11.3285 18.557 11.5241 18.4504L14.3861 16.7782L16.3436 15.5944L19.1957 13.9275C19.3911 13.8211 19.6091 13.7655 19.8305 13.7655C20.052 13.7655 20.27 13.8211 20.4653 13.9275L22.7404 15.222C22.9275 15.3322 23.084 15.4891 23.1951 15.678C23.3063 15.8669 23.3683 16.0816 23.3755 16.3017V18.9446C23.3794 19.1672 23.322 19.3864 23.2097 19.5772C23.0974 19.7681 22.9348 19.923 22.7404 20.0243L20.4642 21.3703C20.2689 21.4767 20.0508 21.5323 19.8294 21.5323C19.6079 21.5323 19.3899 21.4767 19.1946 21.3703L16.9195 20.0752C16.7323 19.9653 16.5757 19.8086 16.4646 19.6197C16.3534 19.4309 16.2914 19.2162 16.2844 18.9961V17.2665L14.3844 18.3983V20.1237C14.38 20.3463 14.4373 20.5656 14.5496 20.7564C14.662 20.9473 14.8248 21.102 15.0194 21.2028L19.2515 23.6841C19.4468 23.7905 19.6648 23.8462 19.8863 23.8462C20.1077 23.8462 20.3257 23.7905 20.5211 23.6841L24.7537 21.2028C24.9397 21.0923 25.0951 20.9354 25.2052 20.7469C25.3154 20.5583 25.3768 20.3443 25.3835 20.1249V15.1054C25.388 14.8828 25.3308 14.6634 25.2184 14.4724C25.1061 14.2814 24.9432 14.1266 24.7485 14.0258L20.517 11.5456Z" fill="white"/>
</svg>
