<svg width="30" height="30" viewBox="0 0 30 30" fill="none" xmlns="http://www.w3.org/2000/svg">
<rect x="4.28613" y="5.14285" width="21.4286" height="19.7143" fill="white"/>
<path d="M15.0001 0C6.71568 0 0 6.71568 0 14.9999C0 23.2841 6.71568 30 15.0001 30C23.2846 30 30 23.2843 30 14.9999C30 6.71543 23.2843 0 15.0001 0ZM16.7171 17.106V24.4293H13.2837V17.106C8.96123 16.9206 5.68893 16.0483 5.68893 14.9996C5.68893 13.9509 8.96123 13.0787 13.2837 12.8932V10.6267H7.97518V7.19335H22.0256V10.627H16.7171V12.8935C21.0395 13.079 24.3118 13.9514 24.3118 14.9999C24.3118 16.0483 21.0395 16.9206 16.7171 17.106Z" fill="#6BBD97"/>
<path d="M16.716 13.136V15.7707H13.2826V13.136C9.45781 13.2934 6.58301 13.9668 6.58301 14.7737C6.58301 15.6976 10.351 16.4465 14.9991 16.4465C19.6471 16.4465 23.4148 15.6976 23.4148 14.7737C23.4148 13.967 20.5405 13.2934 16.716 13.136Z" fill="#6BBD97"/>
</svg>
